STARTFONT 2.1
FONT -FontForge-Okuda-Book-R-Normal--75-720-75-75-P-243-ISO10646-1
SIZE 72 75 75
FONTBOUNDINGBOX 61 80 -4 -14
COMMENT "Generated by fontforge, http://fontforge.sourceforge.net"
COMMENT "Okuda (c) (Neale Davidson). 2011-2014. All Rights Reserved"
STARTPROPERTIES 40
FOUNDRY "FontForge"
FAMILY_NAME "Okuda"
WEIGHT_NAME "Book"
SLANT "R"
SETWIDTH_NAME "Normal"
ADD_STYLE_NAME ""
PIXEL_SIZE 75
POINT_SIZE 720
RESOLUTION_X 75
RESOLUTION_Y 75
SPACING "P"
AVERAGE_WIDTH 243
CHARSET_REGISTRY "ISO10646"
CHARSET_ENCODING "1"
FONTNAME_REGISTRY ""
CHARSET_COLLECTIONS "Symbol ISO10646-1"
FONT_NAME "Okuda"
FACE_NAME "Okuda"
COPYRIGHT "Okuda (c) (Neale Davidson). 2011-2014. All Rights Reserved"
FONT_VERSION "3.50 January 2, 2014"
FONT_ASCENT 60
FONT_DESCENT 15
UNDERLINE_POSITION -11
UNDERLINE_THICKNESS 6
X_HEIGHT 37
CAP_HEIGHT 48
DEFAULT_CHAR 1
RAW_ASCENT 799
RAW_DESCENT 200
NORM_SPACE 18
RELATIVE_WEIGHT 40
RELATIVE_SETWIDTH 50
SUPERSCRIPT_X 0
SUPERSCRIPT_Y 35
SUPERSCRIPT_SIZE 48
SUBSCRIPT_X 0
SUBSCRIPT_Y 10
SUBSCRIPT_SIZE 48
AVG_LOWERCASE_WIDTH 194
AVG_UPPERCASE_WIDTH 217
ENDPROPERTIES
CHARS 244
STARTCHAR .null.dup1
ENCODING 0
SWIDTH 0 0
DWIDTH 0 0
BBX 1 1 0 0
BITMAP
00
ENDCHAR
STARTCHAR .null
ENCODING 29
SWIDTH 0 0
DWIDTH 0 0
BBX 1 1 0 0
BITMAP
00
ENDCHAR
STARTCHAR space
ENCODING 32
SWIDTH 244 0
DWIDTH 18 0
BBX 1 1 0 0
BITMAP
00
ENDCHAR
STARTCHAR exclam
ENCODING 33
SWIDTH 122 0
DWIDTH 9 0
BBX 5 49 2 0
BITMAP
F8
F8
F8
F8
F8
F8
F8
F8
F8
F8
F8
F8
F8
F8
F8
F8
F8
F8
F8
F8
F8
F8
F8
F8
F8
F8
F8
F8
F8
F8
F8
F8
F8
F8
F8
F8
F8
F8
00
00
00
00
00
F8
F8
F8
F8
F8
F8
ENDCHAR
STARTCHAR quotedbl
ENCODING 34
SWIDTH 249 0
DWIDTH 19 0
BBX 15 9 2 45
BITMAP
3E3E
3E7E
7E7C
7C7C
7C7C
7CF8
F8F8
F8F0
F0F0
ENDCHAR
STARTCHAR numbersign
ENCODING 35
SWIDTH 410 0
DWIDTH 31 0
BBX 27 28 2 15
BITMAP
07E0FC00
07E0FC00
07E0FC00
07E0FC00
07E0FC00
07E0FC00
FFFFFFE0
FFFFFFE0
FFFFFFE0
FFFFFFE0
FFFFFFE0
07E0FC00
07E0FC00
07E0FC00
07E0FC00
07E0FC00
07E0FC00
FFFFFFE0
FFFFFFE0
FFFFFFE0
FFFFFFE0
FFFFFFE0
07E0FC00
07E0FC00
07E0FC00
07E0FC00
07E0FC00
07E0FC00
ENDCHAR
STARTCHAR dollar
ENCODING 36
SWIDTH 268 0
DWIDTH 20 0
BBX 16 49 2 0
BITMAP
07E0
07E0
07E0
1FF8
3FFC
7FFE
7FFE
FFFF
FC3F
F81F
F81F
F81F
F800
F800
F800
F800
FC00
FC00
7E00
7F00
3F00
3F80
1FC0
0FE0
07F0
03F8
01FC
00FE
007E
007F
003F
003F
001F
001F
001F
001F
F81F
F81F
F81F
FC3F
FE7F
7FFF
7FFE
7FFE
3FFC
0FF0
07E0
07E0
07E0
ENDCHAR
STARTCHAR percent
ENCODING 37
SWIDTH 439 0
DWIDTH 33 0
BBX 29 51 2 -1
BITMAP
0FF80000
3FFC03F8
7FFE03F0
7FFE07F0
FFFF07E0
FC3F0FE0
FC1F0FC0
F81F1FC0
F81F1F80
F81F1F80
F81F3F80
F81F3F00
F81F7F00
F81F7E00
F81FFE00
F81FFC00
F81FFC00
FC1FF800
FC3FF800
FFFFF000
7FFFF000
7FFFE000
3FFFE000
1FFFC000
000FC000
001FC000
001FBF00
003FFFC0
003FFFE0
007FFFF0
007FFFF0
00FFFFF8
00FFE1F8
01FFC0F8
01FFC0F8
01FFC0F8
03FFC0F8
03F7C0F8
07F7C0F8
07E7C0F8
0FE7C0F8
0FC7C0F8
1FC7C0F8
1F87C0F8
3F87E1F8
3F07FFF8
7F07FFF0
7E03FFF0
7E01FFE0
FC01FFC0
00007F00
ENDCHAR
STARTCHAR ampersand
ENCODING 38
SWIDTH 292 0
DWIDTH 22 0
BBX 18 51 2 -1
BITMAP
0F8000
3F8000
7F8000
7F8000
FF8000
FC0000
FC0000
F80000
F80000
F80000
F80000
F80000
F80000
F81F00
F81F00
F81F00
F81F00
F81F00
F81F00
F81F00
FC1F00
FE1F00
7FFFC0
3FFFC0
1FFFC0
3FFFC0
7FFFC0
FC1F00
FC1F00
F81F00
F81F00
F81F00
F81F00
F81F00
F81F00
F81F00
F81F00
F81F00
F81F00
F81F00
F81F00
F81F00
F81F00
F81F00
FC3F00
FFFF00
7FFE00
7FFE00
3FFC00
1FF800
07F000
ENDCHAR
STARTCHAR quotesingle
ENCODING 39
SWIDTH 146 0
DWIDTH 11 0
BBX 7 9 2 45
BITMAP
3E
3E
7E
7C
7C
7C
F8
F8
F0
ENDCHAR
STARTCHAR parenleft
ENCODING 40
SWIDTH 219 0
DWIDTH 16 0
BBX 13 61 2 -6
BITMAP
01F0
03F0
03E0
07E0
07E0
0FC0
0FC0
0F80
1F80
1F80
3F00
3F00
3F00
3E00
7E00
7E00
7E00
7C00
7C00
FC00
FC00
FC00
FC00
FC00
F800
F800
F800
F800
F800
F800
F800
F800
F800
F800
F800
F800
F800
FC00
FC00
FC00
FC00
FC00
7C00
7E00
7E00
7E00
7E00
3F00
3F00
3F00
1F00
1F80
1F80
0FC0
0FC0
07C0
07E0
03E0
03F0
01F0
01F8
ENDCHAR
STARTCHAR parenright
ENCODING 41
SWIDTH 219 0
DWIDTH 16 0
BBX 13 61 2 -6
BITMAP
FC00
7C00
7E00
7E00
3F00
3F00
1F00
1F80
1F80
0FC0
0FC0
0FC0
07E0
07E0
07E0
03E0
03F0
03F0
03F0
03F0
01F0
01F0
01F0
01F0
01F8
01F8
01F8
01F8
01F8
01F8
01F8
01F8
01F8
01F8
01F8
01F8
01F8
01F0
01F0
01F0
03F0
03F0
03F0
03F0
03E0
07E0
07E0
07E0
07C0
0FC0
0FC0
0F80
1F80
1F80
3F00
3F00
3E00
7E00
7C00
FC00
F800
ENDCHAR
STARTCHAR asterisk
ENCODING 42
SWIDTH 781 0
DWIDTH 59 0
BBX 55 58 2 -6
BITMAP
00000010000000
00000020000000
00000008000000
00000040000000
00000044000000
00000080000000
00000082000000
00000100000000
00000111000000
00000211000000
00000210800000
00000410800000
00000410400000
00000810400000
00000810200000
00000830200000
00001030200000
0000F0301E0000
0007A03013C000
00382030087000
00602030081C00
01804030080600
030040FC040180
040087FF8400C0
180081FF040060
100080FC020030
2001007C020018
600100FC020008
400100FC01000C
C00200CE010004
80020086010004
80020002008006
80040000008002
80040000008002
80040000008002
80000000004004
80080007804004
40080038E04004
4008004010400C
201001800C0008
30100200042010
10100400022030
0C001800012060
062030000020C0
03206000008300
00E0C000005E00
00408000005800
0041000000F000
0043C0000FB000
00447FFFFC1000
004801FF801000
00980000000000
00900000000800
00A00000000000
00C00000000000
00800000000000
00800000000000
01000000000000
ENDCHAR
STARTCHAR plus
ENCODING 43
SWIDTH 264 0
DWIDTH 20 0
BBX 16 16 2 19
BITMAP
07E0
07E0
07E0
07E0
07E0
FFFF
FFFF
FFFF
FFFF
FFFF
FFFF
07E0
07E0
07E0
07E0
07E0
ENDCHAR
STARTCHAR comma
ENCODING 44
SWIDTH 146 0
DWIDTH 11 0
BBX 8 9 2 -3
BITMAP
3F
3E
3E
7C
7C
7C
78
F8
F8
ENDCHAR
STARTCHAR hyphen
ENCODING 45
SWIDTH 268 0
DWIDTH 20 0
BBX 16 5 2 22
BITMAP
FFFF
FFFF
FFFF
FFFF
FFFF
ENDCHAR
STARTCHAR period
ENCODING 46
SWIDTH 122 0
DWIDTH 9 0
BBX 5 6 2 0
BITMAP
F8
F8
F8
F8
F8
F8
ENDCHAR
STARTCHAR slash
ENCODING 47
SWIDTH 268 0
DWIDTH 20 0
BBX 16 49 2 0
BITMAP
001F
003F
003F
003E
003E
007E
007E
007E
007C
007C
00FC
00FC
00F8
00F8
01F8
01F8
01F8
01F0
01F0
03F0
03F0
03E0
03E0
07E0
07E0
07E0
07C0
07C0
0FC0
0FC0
0F80
0F80
1F80
1F80
1F80
1F00
1F00
3F00
3F00
3E00
3E00
7E00
7E00
7E00
7C00
7C00
FC00
FC00
F800
ENDCHAR
STARTCHAR zero
ENCODING 48
SWIDTH 268 0
DWIDTH 20 0
BBX 16 51 2 -1
BITMAP
0FF8
3FFC
7FFE
7FFE
FFFF
FC3F
FC1F
F81F
F81F
F81F
F81F
F81F
F81F
F81F
F81F
F81F
F81F
F81F
F81F
F81F
F81F
F81F
F81F
F81F
F81F
F81F
F81F
F81F
F81F
F81F
F81F
F81F
F81F
F81F
F81F
F81F
F81F
F81F
F81F
F81F
F81F
F81F
F81F
F81F
FC3F
FFFF
7FFE
7FFE
3FFC
1FF8
07F0
ENDCHAR
STARTCHAR one
ENCODING 49
SWIDTH 160 0
DWIDTH 12 0
BBX 9 49 2 0
BITMAP
1F80
1F80
3F80
3F80
FF80
FF80
FF80
FF80
FF80
1F80
1F80
1F80
1F80
1F80
1F80
1F80
1F80
1F80
1F80
1F80
1F80
1F80
1F80
1F80
1F80
1F80
1F80
1F80
1F80
1F80
1F80
1F80
1F80
1F80
1F80
1F80
1F80
1F80
1F80
1F80
1F80
1F80
1F80
1F80
1F80
1F80
1F80
1F80
1F80
ENDCHAR
STARTCHAR two
ENCODING 50
SWIDTH 268 0
DWIDTH 20 0
BBX 16 50 2 0
BITMAP
0FF8
3FFC
7FFE
7FFE
FFFF
FC3F
FC1F
F81F
F81F
F81F
F81F
F81F
F81F
001F
001F
001F
001F
001F
001F
003F
003F
003E
007E
00FE
00FC
01FC
03F8
07F0
0FF0
0FE0
1FC0
3F80
3F00
7F00
7E00
FC00
FC00
FC00
F800
F800
F800
F800
F800
F800
FFFF
FFFF
FFFF
FFFF
FFFF
FFFF
ENDCHAR
STARTCHAR three
ENCODING 51
SWIDTH 268 0
DWIDTH 20 0
BBX 16 51 2 -1
BITMAP
0FF8
3FFC
7FFE
7FFE
FFFF
FC3F
FC1F
F81F
F81F
F81F
F81F
F81F
F81F
001F
001F
001F
001F
001F
001F
001F
003F
007F
07FE
07FC
07F8
07FE
07FE
003F
001F
001F
001F
001F
001F
001F
001F
001F
001F
F81F
F81F
F81F
F81F
F81F
F81F
F81F
FC3F
FFFF
7FFE
7FFE
3FFC
1FF8
07F0
ENDCHAR
STARTCHAR four
ENCODING 52
SWIDTH 337 0
DWIDTH 25 0
BBX 22 49 2 0
BITMAP
0007E0
000FE0
000FE0
001FE0
001FE0
001FE0
003FE0
003FE0
007FE0
007FE0
00FFE0
00FFE0
00FFE0
01FFE0
01F7E0
03F7E0
03F7E0
03E7E0
07E7E0
07C7E0
0FC7E0
0FC7E0
0F87E0
1F87E0
1F07E0
3F07E0
3F07E0
7E07E0
7E07E0
7E07E0
FC07E0
FC07E0
FFFFFC
FFFFFC
FFFFFC
FFFFFC
FFFFFC
FFFFFC
0007E0
0007E0
0007E0
0007E0
0007E0
0007E0
0007E0
0007E0
0007E0
0007E0
0007E0
ENDCHAR
STARTCHAR five
ENCODING 53
SWIDTH 268 0
DWIDTH 20 0
BBX 16 50 2 -1
BITMAP
FFFF
FFFF
FFFF
FFFF
FFFF
F800
F800
F800
F800
F800
F800
F800
F800
F800
F800
F800
F800
F800
FFF0
FFFC
FFFE
FFFE
FFFF
FE7F
FC3F
F81F
001F
001F
001F
001F
001F
001F
001F
001F
001F
001F
F81F
F81F
F81F
F81F
F81F
F81F
F81F
FC3F
FFFF
7FFE
7FFE
3FFC
1FF8
07F0
ENDCHAR
STARTCHAR six
ENCODING 54
SWIDTH 268 0
DWIDTH 20 0
BBX 16 51 2 -1
BITMAP
0FF8
3FFC
7FFE
7FFE
FFFF
FC3F
FC1F
F81F
F81F
F81F
F81F
F81F
F81F
F800
F800
F800
F800
F800
F800
FFF0
FFFC
FFFE
FFFE
FFFF
FE7F
FC3F
F81F
F81F
F81F
F81F
F81F
F81F
F81F
F81F
F81F
F81F
F81F
F81F
F81F
F81F
F81F
F81F
F81F
F81F
FC3F
FFFF
7FFE
7FFE
3FFC
1FF8
07F0
ENDCHAR
STARTCHAR seven
ENCODING 55
SWIDTH 292 0
DWIDTH 22 0
BBX 19 49 2 0
BITMAP
FFFFE0
FFFFE0
FFFFE0
FFFFE0
FFFFE0
0007E0
0007E0
000FC0
000FC0
000FC0
000FC0
000FC0
001F80
001F80
001F80
001F80
003F00
003F00
003F00
003F00
003E00
007E00
007E00
007E00
007C00
00FC00
00FC00
00FC00
00F800
01F800
01F800
01F800
01F800
01F000
03F000
03F000
03F000
03E000
07E000
07E000
07E000
07C000
07C000
0FC000
0FC000
0F8000
0F8000
1F8000
1F8000
ENDCHAR
STARTCHAR eight
ENCODING 56
SWIDTH 268 0
DWIDTH 20 0
BBX 16 51 2 -1
BITMAP
0FF8
3FFC
7FFE
7FFE
FFFF
FC3F
FC1F
F81F
F81F
F81F
F81F
F81F
F81F
F81F
F81F
F81F
F81F
F81F
F81F
F81F
FC3F
FE7F
7FFE
3FFC
1FF8
3FFE
7FFE
FC3F
FC1F
F81F
F81F
F81F
F81F
F81F
F81F
F81F
F81F
F81F
F81F
F81F
F81F
F81F
F81F
F81F
FC3F
FFFF
7FFE
7FFE
3FFC
1FF8
07F0
ENDCHAR
STARTCHAR nine
ENCODING 57
SWIDTH 268 0
DWIDTH 20 0
BBX 16 51 2 -1
BITMAP
0FF8
3FFC
7FFE
7FFE
FFFF
FC3F
FC1F
F81F
F81F
F81F
F81F
F81F
F81F
F81F
F81F
F81F
F81F
F81F
F81F
F81F
F81F
F81F
F81F
F81F
F81F
FC3F
FFFF
7FFF
7FFF
3FFF
1FFF
07DF
001F
001F
001F
001F
001F
F81F
F81F
F81F
F81F
F81F
F81F
F81F
FC3F
FFFF
7FFE
7FFE
3FFC
1FF8
07F0
ENDCHAR
STARTCHAR colon
ENCODING 58
SWIDTH 122 0
DWIDTH 9 0
BBX 5 29 2 0
BITMAP
F8
F8
F8
F8
F8
F8
00
00
00
00
00
00
00
00
00
00
00
00
00
00
00
00
00
F8
F8
F8
F8
F8
F8
ENDCHAR
STARTCHAR semicolon
ENCODING 59
SWIDTH 146 0
DWIDTH 11 0
BBX 8 32 2 -3
BITMAP
3F
3F
3F
3F
3F
3F
00
00
00
00
00
00
00
00
00
00
00
00
00
00
00
00
00
3F
3E
3E
7C
7C
7C
78
F8
F8
ENDCHAR
STARTCHAR less
ENCODING 60
SWIDTH 292 0
DWIDTH 22 0
BBX 18 37 2 6
BITMAP
001FC0
001F80
003F80
007F00
007E00
00FE00
01FC00
01F800
03F800
03F000
07E000
0FE000
0FC000
1F8000
3F8000
3F0000
7E0000
FE0000
FC0000
7E0000
7F0000
3F0000
1F8000
1FC000
0FC000
07E000
07F000
03F000
03F800
01FC00
00FC00
00FE00
007E00
003F00
003F80
001F80
000FC0
ENDCHAR
STARTCHAR equal
ENCODING 61
SWIDTH 264 0
DWIDTH 20 0
BBX 16 17 2 18
BITMAP
FFFF
FFFF
FFFF
FFFF
FFFF
0000
0000
0000
0000
0000
0000
0000
FFFF
FFFF
FFFF
FFFF
FFFF
ENDCHAR
STARTCHAR greater
ENCODING 62
SWIDTH 292 0
DWIDTH 22 0
BBX 18 37 2 6
BITMAP
FE0000
7E0000
7F0000
3F8000
1F8000
1FC000
0FC000
07E000
07F000
03F000
01F800
01FC00
00FC00
007E00
007F00
003F00
001F80
001FC0
000FC0
001F80
003F80
003F00
007E00
00FE00
00FC00
01F800
03F800
03F000
07F000
0FE000
0FC000
1FC000
3F8000
3F0000
7F0000
7E0000
FC0000
ENDCHAR
STARTCHAR question
ENCODING 63
SWIDTH 268 0
DWIDTH 20 0
BBX 16 50 2 0
BITMAP
0FF8
3FFC
7FFE
7FFE
FFFF
FC3F
FC1F
F81F
F81F
F81F
F81F
F81F
F81F
001F
001F
001F
001F
001F
001F
003F
003F
003F
007F
007E
007E
00FC
00FC
01FC
01F8
03F8
03F0
07F0
07E0
07E0
07E0
0FC0
0FC0
0FC0
0FC0
0FC0
0000
0000
0000
0000
0FC0
0FC0
0FC0
0FC0
0FC0
0FC0
ENDCHAR
STARTCHAR at
ENCODING 64
SWIDTH 366 0
DWIDTH 27 0
BBX 24 44 2 3
BITMAP
07FFC0
1FFFF0
3FFFFC
7FFFFC
7FFFFE
FFFFFE
FC007E
F8003E
F8003F
F8003F
F8007F
F807FF
F83FFF
F87FFF
F87FFF
F8FFFF
F8FFFF
F8FF3F
F9F83F
F9F83F
F9F83F
F9F83F
F9F83F
F9F83F
F9F83F
F9F83F
F9F83F
F9F83F
F9F83F
F9F83F
F8FFFF
F8FFFF
F8FFFF
F87FFF
F83FFF
F80F80
F80000
FC0000
FE0000
7FFFF0
7FFFF0
7FFFF0
3FFFF0
0FFFF0
ENDCHAR
STARTCHAR A
ENCODING 65
SWIDTH 292 0
DWIDTH 22 0
BBX 20 49 1 0
BITMAP
03FC00
03FC00
03FC00
03FC00
03FC00
03FC00
07FE00
07FE00
07FE00
07FE00
07FE00
07FE00
07FE00
07FE00
0FFF00
0FFF00
0FFF00
0FFF00
0FFF00
0FFF00
0FFF00
1FFF80
1FFF80
1FFF80
1FFF80
1F9F80
1F9F80
1F9F80
1F9F80
3F9FC0
3F9FC0
3F9FC0
3F0FC0
3FFFC0
3FFFC0
3FFFC0
3FFFC0
7FFFE0
7F0FE0
7F0FE0
7E07E0
7E07E0
7E07E0
7E07E0
FE07E0
FE07F0
FE07F0
FE07F0
FC03F0
ENDCHAR
STARTCHAR B
ENCODING 66
SWIDTH 292 0
DWIDTH 22 0
BBX 18 49 2 0
BITMAP
FFFE00
FFFF00
FFFF80
FFFF80
FFFF80
F80FC0
F80FC0
F807C0
F807C0
F807C0
F807C0
F807C0
F807C0
F807C0
F807C0
F807C0
F807C0
F807C0
F807C0
F80FC0
F81F80
FFFF80
FFFF00
FFFE00
FFFF00
FFFF80
F80FC0
F80FC0
F807C0
F807C0
F807C0
F807C0
F807C0
F807C0
F807C0
F807C0
F807C0
F807C0
F807C0
F807C0
F807C0
F807C0
F80FC0
F83FC0
FFFF80
FFFF80
FFFF00
FFFE00
FFFC00
ENDCHAR
STARTCHAR C
ENCODING 67
SWIDTH 292 0
DWIDTH 22 0
BBX 18 51 2 -1
BITMAP
0FFC00
3FFF00
7FFF00
7FFF80
FFFF80
FC0FC0
FC0FC0
F807C0
F807C0
F807C0
F807C0
F807C0
F807C0
F80000
F80000
F80000
F80000
F80000
F80000
F80000
F80000
F80000
F80000
F80000
F80000
F80000
F80000
F80000
F80000
F80000
F80000
F80000
F80000
F80000
F80000
F80000
F80000
F807C0
F807C0
F807C0
F807C0
F807C0
F807C0
F807C0
FC0FC0
FFFFC0
7FFF80
7FFF80
3FFF00
1FFE00
07F800
ENDCHAR
STARTCHAR D
ENCODING 68
SWIDTH 292 0
DWIDTH 22 0
BBX 18 49 2 0
BITMAP
FFFE00
FFFF00
FFFF80
FFFF80
FFFF80
F80FC0
F80FC0
F807C0
F807C0
F807C0
F807C0
F807C0
F807C0
F807C0
F807C0
F807C0
F807C0
F807C0
F807C0
F807C0
F807C0
F807C0
F807C0
F807C0
F807C0
F807C0
F807C0
F807C0
F807C0
F807C0
F807C0
F807C0
F807C0
F807C0
F807C0
F807C0
F807C0
F807C0
F807C0
F807C0
F807C0
F807C0
F80FC0
F83FC0
FFFF80
FFFF80
FFFF00
FFFE00
FFFC00
ENDCHAR
STARTCHAR E
ENCODING 69
SWIDTH 292 0
DWIDTH 22 0
BBX 18 49 2 0
BITMAP
FFFFC0
FFFFC0
FFFFC0
FFFFC0
FFFFC0
F80000
F80000
F80000
F80000
F80000
F80000
F80000
F80000
F80000
F80000
F80000
F80000
F80000
F80000
F80000
F80000
F80000
FFFC00
FFFC00
FFFC00
FFFC00
FFFC00
F80000
F80000
F80000
F80000
F80000
F80000
F80000
F80000
F80000
F80000
F80000
F80000
F80000
F80000
F80000
F80000
FFFFC0
FFFFC0
FFFFC0
FFFFC0
FFFFC0
FFFFC0
ENDCHAR
STARTCHAR F
ENCODING 70
SWIDTH 292 0
DWIDTH 22 0
BBX 18 49 2 0
BITMAP
FFFFC0
FFFFC0
FFFFC0
FFFFC0
FFFFC0
F80000
F80000
F80000
F80000
F80000
F80000
F80000
F80000
F80000
F80000
F80000
F80000
F80000
F80000
F80000
F80000
F80000
FFFC00
FFFC00
FFFC00
FFFC00
FFFC00
F80000
F80000
F80000
F80000
F80000
F80000
F80000
F80000
F80000
F80000
F80000
F80000
F80000
F80000
F80000
F80000
F80000
F80000
F80000
F80000
F80000
F80000
ENDCHAR
STARTCHAR G
ENCODING 71
SWIDTH 292 0
DWIDTH 22 0
BBX 18 51 2 -1
BITMAP
0FFC00
3FFF00
7FFF00
7FFF80
FFFF80
FC0FC0
FC0FC0
F807C0
F807C0
F807C0
F807C0
F807C0
F807C0
F80000
F80000
F80000
F80000
F80000
F80000
F80000
F80000
F80000
F80000
F80000
F80000
F87FC0
F87FC0
F87FC0
F87FC0
F87FC0
F87FC0
F807C0
F807C0
F807C0
F807C0
F807C0
F807C0
F807C0
F807C0
F807C0
F807C0
F807C0
F807C0
F807C0
FC0FC0
FFFFC0
7FFFC0
7FFFC0
3FF7C0
1FF7C0
07E000
ENDCHAR
STARTCHAR H
ENCODING 72
SWIDTH 292 0
DWIDTH 22 0
BBX 18 49 2 0
BITMAP
F807C0
F807C0
F807C0
F807C0
F807C0
F807C0
F807C0
F807C0
F807C0
F807C0
F807C0
F807C0
F807C0
F807C0
F807C0
F807C0
F807C0
F807C0
F807C0
F807C0
FFFFC0
FFFFC0
FFFFC0
FFFFC0
FFFFC0
F807C0
F807C0
F807C0
F807C0
F807C0
F807C0
F807C0
F807C0
F807C0
F807C0
F807C0
F807C0
F807C0
F807C0
F807C0
F807C0
F807C0
F807C0
F807C0
F807C0
F807C0
F807C0
F807C0
F807C0
ENDCHAR
STARTCHAR I
ENCODING 73
SWIDTH 122 0
DWIDTH 9 0
BBX 5 49 2 0
BITMAP
F8
F8
F8
F8
F8
F8
F8
F8
F8
F8
F8
F8
F8
F8
F8
F8
F8
F8
F8
F8
F8
F8
F8
F8
F8
F8
F8
F8
F8
F8
F8
F8
F8
F8
F8
F8
F8
F8
F8
F8
F8
F8
F8
F8
F8
F8
F8
F8
F8
ENDCHAR
STARTCHAR J
ENCODING 74
SWIDTH 292 0
DWIDTH 22 0
BBX 18 50 2 -1
BITMAP
0007C0
0007C0
0007C0
0007C0
0007C0
0007C0
0007C0
0007C0
0007C0
0007C0
0007C0
0007C0
0007C0
0007C0
0007C0
0007C0
0007C0
0007C0
0007C0
0007C0
0007C0
0007C0
0007C0
0007C0
0007C0
0007C0
0007C0
0007C0
0007C0
0007C0
0007C0
0007C0
0007C0
0007C0
0007C0
0007C0
F807C0
F807C0
F807C0
F807C0
F807C0
F807C0
F807C0
FC0FC0
FFFFC0
7FFF80
7FFF80
3FFF00
1FFE00
07F800
ENDCHAR
STARTCHAR K
ENCODING 75
SWIDTH 292 0
DWIDTH 22 0
BBX 20 49 2 0
BITMAP
F807E0
F80FE0
F80FC0
F81FC0
F81F80
F83F80
F83F00
F87F00
F87E00
F8FC00
F9FC00
F9F800
FBF800
FBF000
FFF000
FFE000
FFC000
FFC000
FF8000
FF8000
FF0000
FF0000
FE0000
FF0000
FF0000
FF8000
FF8000
FFC000
FFC000
FFE000
FFE000
FFF000
FBF000
FBF000
F9F800
F9F800
F8FC00
F8FC00
F87E00
F87E00
F87F00
F83F00
F83F80
F81F80
F81FC0
F80FC0
F80FE0
F807E0
F807F0
ENDCHAR
STARTCHAR L
ENCODING 76
SWIDTH 268 0
DWIDTH 20 0
BBX 16 49 2 0
BITMAP
F800
F800
F800
F800
F800
F800
F800
F800
F800
F800
F800
F800
F800
F800
F800
F800
F800
F800
F800
F800
F800
F800
F800
F800
F800
F800
F800
F800
F800
F800
F800
F800
F800
F800
F800
F800
F800
F800
F800
F800
F800
F800
F800
FFFF
FFFF
FFFF
FFFF
FFFF
FFFF
ENDCHAR
STARTCHAR M
ENCODING 77
SWIDTH 415 0
DWIDTH 31 0
BBX 27 49 2 0
BITMAP
FE000FE0
FE000FE0
FE000FE0
FE000FE0
FF000FE0
FF001FE0
FF001FE0
FF001FE0
FF001FE0
FF801FE0
FF803FE0
FF803FE0
FF803FE0
FFC03FE0
FFC07FE0
FFC07FE0
FFC07FE0
FFE07FE0
FBE07FE0
FBE0FBE0
FBE0FBE0
FBE0FBE0
FBF0FBE0
FBF1FBE0
F9F1FBE0
F9F1F3E0
F9F9F3E0
F9F9F3E0
F9FBF3E0
F9FBF3E0
F8FFF3E0
F8FFE3E0
F8FFE3E0
F8FFE3E0
F8FFE3E0
F8FFE3E0
F87FC3E0
F87FC3E0
F87FC3E0
F87FC3E0
F87FC3E0
F83FC3E0
F83F83E0
F83F83E0
F83F83E0
F83F83E0
F83F83E0
F81F83E0
F81F03E0
ENDCHAR
STARTCHAR N
ENCODING 78
SWIDTH 317 0
DWIDTH 24 0
BBX 20 49 2 0
BITMAP
FE03F0
FE03F0
FE03F0
FE03F0
FF03F0
FF03F0
FF03F0
FF03F0
FF83F0
FF83F0
FF83F0
FF83F0
FF83F0
FFC3F0
FFC3F0
FFC3F0
FFC3F0
FFE3F0
FBE3F0
FBE3F0
FBE3F0
FBF3F0
F9F3F0
F9F3F0
F9F3F0
F9FBF0
F8FBF0
F8FBF0
F8FBF0
F8FFF0
F87FF0
F87FF0
F87FF0
F87FF0
F83FF0
F83FF0
F83FF0
F83FF0
F81FF0
F81FF0
F81FF0
F81FF0
F80FF0
F80FF0
F80FF0
F80FF0
F807F0
F807F0
F807F0
ENDCHAR
STARTCHAR O
ENCODING 79
SWIDTH 292 0
DWIDTH 22 0
BBX 18 51 2 -1
BITMAP
0FFC00
3FFF00
7FFF00
7FFF80
FFFF80
FC0FC0
FC0FC0
F807C0
F807C0
F807C0
F807C0
F807C0
F807C0
F807C0
F807C0
F807C0
F807C0
F807C0
F807C0
F807C0
F807C0
F807C0
F807C0
F807C0
F807C0
F807C0
F807C0
F807C0
F807C0
F807C0
F807C0
F807C0
F807C0
F807C0
F807C0
F807C0
F807C0
F807C0
F807C0
F807C0
F807C0
F807C0
F807C0
F807C0
FC0FC0
FFFFC0
7FFF80
7FFF80
3FFF00
1FFE00
07F800
ENDCHAR
STARTCHAR P
ENCODING 80
SWIDTH 292 0
DWIDTH 22 0
BBX 18 49 2 0
BITMAP
FFFE00
FFFF00
FFFF80
FFFF80
FFFF80
F80FC0
F80FC0
F807C0
F807C0
F807C0
F807C0
F807C0
F807C0
F807C0
F807C0
F807C0
F807C0
F807C0
F807C0
F807C0
F807C0
F807C0
F80FC0
FFFFC0
FFFF80
FFFF80
FFFF00
FFFE00
FFF800
F80000
F80000
F80000
F80000
F80000
F80000
F80000
F80000
F80000
F80000
F80000
F80000
F80000
F80000
F80000
F80000
F80000
F80000
F80000
F80000
ENDCHAR
STARTCHAR Q
ENCODING 81
SWIDTH 292 0
DWIDTH 22 0
BBX 18 56 2 -7
BITMAP
0FFC00
3FFF00
7FFF80
7FFF80
FFFF80
FC0FC0
F807C0
F807C0
F807C0
F807C0
F807C0
F807C0
F807C0
F807C0
F807C0
F807C0
F807C0
F807C0
F807C0
F807C0
F807C0
F807C0
F807C0
F807C0
F807C0
F807C0
F807C0
F807C0
F807C0
F807C0
F807C0
F807C0
F807C0
F807C0
F807C0
F807C0
F807C0
F807C0
F807C0
F807C0
F807C0
F807C0
F807C0
FE1FC0
FFFFC0
7FFF80
7FFF80
3FFF00
0FFC00
03F000
03F000
03FFC0
03FFC0
01FFC0
01FFC0
007FC0
ENDCHAR
STARTCHAR R
ENCODING 82
SWIDTH 268 0
DWIDTH 20 0
BBX 17 49 2 0
BITMAP
FFF800
FFFC00
FFFE00
FFFE00
FFFF00
F83F00
F81F00
F81F00
F81F00
F81F00
F81F00
F81F00
F81F00
F81F00
F81F00
F81F00
F81F00
F81F00
F81F00
F81F00
F81F00
F81F00
F83F00
FFFF00
FFFE00
FFFC00
FFF800
FFFC00
FFFE00
F83F00
F81F00
F81F00
F81F00
F81F00
F81F00
F81F00
F81F00
F81F00
F81F00
F81F00
F81F00
F81F00
F81F00
F81F00
F81F00
F81F00
F81F00
F81F80
F80F80
ENDCHAR
STARTCHAR S
ENCODING 83
SWIDTH 292 0
DWIDTH 22 0
BBX 18 51 2 -1
BITMAP
0FFC00
3FFF00
7FFF00
7FFF80
FFFF80
FC0FC0
FC0FC0
F807C0
F807C0
F807C0
F807C0
F807C0
F807C0
F80000
F80000
F80000
F80000
FC0000
FC0000
7E0000
7F0000
3F8000
1FC000
0FE000
07F000
03FC00
01FE00
00FF00
007F00
003F80
001F80
000FC0
000FC0
0007C0
0007C0
0007C0
0007C0
F807C0
F807C0
F807C0
F807C0
F807C0
F807C0
F807C0
FC0FC0
FFFFC0
7FFF80
7FFF80
3FFF00
1FFE00
07F800
ENDCHAR
STARTCHAR T
ENCODING 84
SWIDTH 292 0
DWIDTH 22 0
BBX 19 49 2 0
BITMAP
FFFFE0
FFFFE0
FFFFE0
FFFFE0
FFFFE0
03F000
03F000
03F000
03F000
03F000
03F000
03F000
03F000
03F000
03F000
03F000
03F000
03F000
03F000
03F000
03F000
03F000
03F000
03F000
03F000
03F000
03F000
03F000
03F000
03F000
03F000
03F000
03F000
03F000
03F000
03F000
03F000
03F000
03F000
03F000
03F000
03F000
03F000
03F000
03F000
03F000
03F000
03F000
03F000
ENDCHAR
STARTCHAR U
ENCODING 85
SWIDTH 292 0
DWIDTH 22 0
BBX 18 50 2 -1
BITMAP
F807C0
F807C0
F807C0
F807C0
F807C0
F807C0
F807C0
F807C0
F807C0
F807C0
F807C0
F807C0
F807C0
F807C0
F807C0
F807C0
F807C0
F807C0
F807C0
F807C0
F807C0
F807C0
F807C0
F807C0
F807C0
F807C0
F807C0
F807C0
F807C0
F807C0
F807C0
F807C0
F807C0
F807C0
F807C0
F807C0
F807C0
F807C0
F807C0
F807C0
F807C0
F807C0
F807C0
FC0FC0
FFFFC0
7FFF80
7FFF80
3FFF00
1FFE00
07F800
ENDCHAR
STARTCHAR V
ENCODING 86
SWIDTH 292 0
DWIDTH 22 0
BBX 20 49 1 0
BITMAP
FC03F0
FE07F0
FE07F0
FE07F0
7E07E0
7E07E0
7E07E0
7E07E0
7E0FE0
7F0FE0
7F0FE0
7F0FE0
3F0FC0
3F0FC0
3F0FC0
3F0FC0
3F9FC0
3F9FC0
3F9FC0
1F9F80
1F9F80
1F9F80
1F9F80
1F9F80
1FFF80
1FFF80
1FFF80
0FFF00
0FFF00
0FFF00
0FFF00
0FFF00
0FFF00
0FFF00
0FFF00
07FE00
07FE00
07FE00
07FE00
07FE00
07FE00
07FE00
07FE00
03FC00
03FC00
03FC00
03FC00
03FC00
03FC00
ENDCHAR
STARTCHAR W
ENCODING 87
SWIDTH 476 0
DWIDTH 36 0
BBX 34 49 1 0
BITMAP
FC03F01FC0
FE07F01FC0
FE07F01F80
FE07F81F80
7E07F81F80
7E07F81F80
7E07F83F80
7E07F83F80
7E0FF83F80
7F0FF83F80
7F0FF83F00
7F0FFC3F00
3F0FFC3F00
3F0FFC3F00
3F0FFC7F00
3F0FFC7F00
3F9FFC7F00
3F9FFC7E00
3F9FFE7E00
1F9FFE7E00
1F9FFE7E00
1F9FFE7E00
1F9FFEFE00
1F9FFEFE00
1FFFFEFE00
1FFFFEFC00
1FFFFFFC00
0FFF7FFC00
0FFF7FFC00
0FFF3FFC00
0FFF3FFC00
0FFF3FFC00
0FFF3FFC00
0FFF3FF800
0FFF3FF800
07FE3FF800
07FE3FF800
07FE1FF800
07FE1FF800
07FE1FF800
07FE1FF000
07FE1FF000
07FE1FF000
03FC1FF000
03FC1FF000
03FC0FF000
03FC0FF000
03FC0FF000
03FC0FE000
ENDCHAR
STARTCHAR X
ENCODING 88
SWIDTH 292 0
DWIDTH 22 0
BBX 20 49 1 0
BITMAP
FE07F0
FE07F0
7E07E0
7E07E0
7F0FE0
3F0FC0
3F0FC0
3F9FC0
3F9FC0
1F9F80
1F9F80
1FFF80
0FFF00
0FFF00
0FFF00
0FFF00
07FE00
07FE00
07FE00
07FE00
03FC00
03FC00
03FC00
01F800
01F800
03FC00
03FC00
03FC00
03FC00
07FE00
07FE00
07FE00
0FFE00
0FFF00
0FFF00
0FFF00
1FFF80
1FFF80
1F9F80
1F9F80
3F9FC0
3F0FC0
3F0FC0
7F0FE0
7F0FE0
7E07E0
7E07E0
FE07F0
FC03F0
ENDCHAR
STARTCHAR Y
ENCODING 89
SWIDTH 292 0
DWIDTH 22 0
BBX 20 49 1 0
BITMAP
FE07F0
FE07F0
7E07E0
7E07E0
7F0FE0
3F0FC0
3F0FC0
3F9FC0
3F9FC0
1F9F80
1F9F80
1FFF80
0FFF00
0FFF00
0FFF00
0FFF00
07FE00
07FE00
07FE00
07FE00
03FC00
03FC00
03FC00
01F800
01F800
01F800
01F800
01F800
01F800
01F800
01F800
01F800
01F800
01F800
01F800
01F800
01F800
01F800
01F800
01F800
01F800
01F800
01F800
01F800
01F800
01F800
01F800
01F800
01F800
ENDCHAR
STARTCHAR Z
ENCODING 90
SWIDTH 292 0
DWIDTH 22 0
BBX 18 49 2 0
BITMAP
FFFFC0
FFFFC0
FFFFC0
FFFFC0
FFFFC0
000FC0
000FC0
000FC0
001F80
001F80
001F80
003F00
003F00
003F00
007E00
007E00
007E00
00FC00
00FC00
00FC00
01F800
01F800
01F800
03F000
03F000
03F000
07E000
07E000
07C000
0FC000
0FC000
0F8000
1F8000
1F8000
1F0000
3F0000
3F0000
7E0000
7E0000
7E0000
FC0000
FC0000
FC0000
FFFFC0
FFFFC0
FFFFC0
FFFFC0
FFFFC0
FFFFC0
ENDCHAR
STARTCHAR bracketleft
ENCODING 91
SWIDTH 219 0
DWIDTH 16 0
BBX 13 61 2 -6
BITMAP
FFF8
FFF8
FFF8
FFF8
FFF8
FFF8
F800
F800
F800
F800
F800
F800
F800
F800
F800
F800
F800
F800
F800
F800
F800
F800
F800
F800
F800
F800
F800
F800
F800
F800
F800
F800
F800
F800
F800
F800
F800
F800
F800
F800
F800
F800
F800
F800
F800
F800
F800
F800
F800
F800
F800
F800
F800
F800
F800
FFF8
FFF8
FFF8
FFF8
FFF8
FFF8
ENDCHAR
STARTCHAR backslash
ENCODING 92
SWIDTH 268 0
DWIDTH 20 0
BBX 16 49 2 0
BITMAP
FC00
FC00
FC00
7C00
7C00
7E00
7E00
3E00
3E00
3F00
3F00
3F00
1F00
1F00
1F80
1F80
0F80
0F80
0FC0
0FC0
0FC0
07C0
07C0
07E0
07E0
03E0
03E0
03F0
03F0
03F0
01F0
01F0
01F8
01F8
00F8
00F8
00FC
00FC
00FC
007C
007C
007E
007E
003E
003E
003F
003F
003F
001F
ENDCHAR
STARTCHAR bracketright
ENCODING 93
SWIDTH 219 0
DWIDTH 16 0
BBX 13 61 2 -6
BITMAP
FFF8
FFF8
FFF8
FFF8
FFF8
FFF8
01F8
01F8
01F8
01F8
01F8
01F8
01F8
01F8
01F8
01F8
01F8
01F8
01F8
01F8
01F8
01F8
01F8
01F8
01F8
01F8
01F8
01F8
01F8
01F8
01F8
01F8
01F8
01F8
01F8
01F8
01F8
01F8
01F8
01F8
01F8
01F8
01F8
01F8
01F8
01F8
01F8
01F8
01F8
01F8
01F8
01F8
01F8
01F8
01F8
FFF8
FFF8
FFF8
FFF8
FFF8
FFF8
ENDCHAR
STARTCHAR asciicircum
ENCODING 94
SWIDTH 292 0
DWIDTH 22 0
BBX 18 7 2 55
BITMAP
03F000
07F800
0FFC00
1F3E00
3F3F00
7E1F80
FC0FC0
ENDCHAR
STARTCHAR underscore
ENCODING 95
SWIDTH 336 0
DWIDTH 25 0
BBX 25 6 2 -9
BITMAP
FFFFFF80
FFFFFF80
FFFFFF80
FFFFFF80
FFFFFF80
FFFFFF80
ENDCHAR
STARTCHAR grave
ENCODING 96
SWIDTH 292 0
DWIDTH 22 0
BBX 18 9 2 55
BITMAP
030000
0FC000
3FE000
FFF800
3FFC00
07FF00
00FF80
003FC0
000700
ENDCHAR
STARTCHAR a
ENCODING 97
SWIDTH 268 0
DWIDTH 20 0
BBX 16 40 2 -1
BITMAP
1FF8
3FFC
7FFE
7FFE
FFFF
FC3F
FC1F
F81F
F81F
F81F
F81F
F81F
001F
003F
007F
07FF
1FFF
3FFF
7FFF
7FFF
FFDF
FF1F
FC1F
F81F
F81F
F81F
F81F
F81F
F81F
F81F
F81F
F81F
F81F
FC3F
FFFF
7FFF
7FFF
3FFF
1FDF
0780
ENDCHAR
STARTCHAR b
ENCODING 98
SWIDTH 268 0
DWIDTH 20 0
BBX 16 50 2 -1
BITMAP
F800
F800
F800
F800
F800
F800
F800
F800
F800
F800
FBF8
FBFC
FFFE
FFFE
FFFF
FC3F
FC1F
F81F
F81F
F81F
F81F
F81F
F81F
F81F
F81F
F81F
F81F
F81F
F81F
F81F
F81F
F81F
F81F
F81F
F81F
F81F
F81F
F81F
F81F
F81F
F81F
F81F
F81F
FC3F
FFFF
FFFE
FFFE
FFFC
FBF8
01F0
ENDCHAR
STARTCHAR c
ENCODING 99
SWIDTH 268 0
DWIDTH 20 0
BBX 16 40 2 -1
BITMAP
1FF8
3FFC
7FFE
7FFE
FFFF
FC3F
FC1F
F81F
F81F
F81F
F81F
F81F
F81F
F800
F800
F800
F800
F800
F800
F800
F800
F800
F800
F800
F800
F800
F81F
F81F
F81F
F81F
F81F
F81F
F81F
FC3F
FFFF
7FFE
7FFE
3FFC
1FF8
07F0
ENDCHAR
STARTCHAR d
ENCODING 100
SWIDTH 268 0
DWIDTH 20 0
BBX 16 50 2 -1
BITMAP
001F
001F
001F
001F
001F
001F
001F
001F
001F
001F
1FDF
3FDF
7FFF
7FFF
FFFF
FC3F
FC1F
F81F
F81F
F81F
F81F
F81F
F81F
F81F
F81F
F81F
F81F
F81F
F81F
F81F
F81F
F81F
F81F
F81F
F81F
F81F
F81F
F81F
F81F
F81F
F81F
F81F
F81F
FC3F
FFFF
7FFF
7FFF
3FFF
1FDF
0780
ENDCHAR
STARTCHAR e
ENCODING 101
SWIDTH 268 0
DWIDTH 20 0
BBX 16 40 2 -1
BITMAP
1FF8
3FFC
7FFE
7FFE
FFFF
FC3F
FC1F
F81F
F81F
F81F
F81F
F81F
F81F
F81F
F81F
F81F
F81F
FFFF
FFFF
FFFF
FFFF
FFFF
FFFF
F800
F800
F800
F81F
F81F
F81F
F81F
F81F
F81F
F81F
FC3F
FFFF
7FFE
7FFE
3FFC
1FF8
07F0
ENDCHAR
STARTCHAR f
ENCODING 102
SWIDTH 219 0
DWIDTH 16 0
BBX 13 49 2 0
BITMAP
00F8
03F8
07F8
07F8
0FF8
0FC0
0F80
0F80
0F80
1F80
1F80
FFF8
FFF8
FFF8
FFF8
FFF8
1F80
1F80
1F80
1F80
1F80
1F80
1F80
1F80
1F80
1F80
1F80
1F80
1F80
1F80
1F80
1F80
1F80
1F80
1F80
1F80
1F80
1F80
1F80
1F80
1F80
1F80
1F80
1F80
1F80
1F80
1F80
1F80
1F80
ENDCHAR
STARTCHAR g
ENCODING 103
SWIDTH 268 0
DWIDTH 20 0
BBX 16 52 2 -13
BITMAP
0FC0
3FDF
7FFF
7FFF
7FFF
FC3F
FC1F
F81F
F81F
F81F
F81F
F81F
F81F
F81F
F81F
F81F
F81F
F81F
F81F
F81F
F81F
F81F
F81F
F81F
F81F
F81F
F81F
F81F
F81F
F81F
F81F
F81F
F81F
FC3F
FFFF
7FFF
7FFF
3FFF
1FDF
079F
001F
001F
F81F
F81F
F81F
FC3F
FFFF
7FFE
7FFE
3FFC
1FF8
07E0
ENDCHAR
STARTCHAR h
ENCODING 104
SWIDTH 268 0
DWIDTH 20 0
BBX 16 49 2 0
BITMAP
F800
F800
F800
F800
F800
F800
F800
F800
F800
F800
FBF8
FBFC
FFFE
FFFE
FFFF
FC3F
FC1F
F81F
F81F
F81F
F81F
F81F
F81F
F81F
F81F
F81F
F81F
F81F
F81F
F81F
F81F
F81F
F81F
F81F
F81F
F81F
F81F
F81F
F81F
F81F
F81F
F81F
F81F
F81F
F81F
F81F
F81F
F81F
F81F
ENDCHAR
STARTCHAR i
ENCODING 105
SWIDTH 117 0
DWIDTH 9 0
BBX 5 49 2 0
BITMAP
F8
F8
F8
F8
F8
00
00
00
00
00
00
F8
F8
F8
F8
F8
F8
F8
F8
F8
F8
F8
F8
F8
F8
F8
F8
F8
F8
F8
F8
F8
F8
F8
F8
F8
F8
F8
F8
F8
F8
F8
F8
F8
F8
F8
F8
F8
F8
ENDCHAR
STARTCHAR j
ENCODING 106
SWIDTH 189 0
DWIDTH 14 0
BBX 11 60 2 -11
BITMAP
07E0
07E0
07E0
07E0
07E0
0000
0000
0000
0000
0000
0000
07E0
07E0
07E0
07E0
07E0
07E0
07E0
07E0
07E0
07E0
07E0
07E0
07E0
07E0
07E0
07E0
07E0
07E0
07E0
07E0
07E0
07E0
07E0
07E0
07E0
07E0
07E0
07E0
07E0
07E0
07E0
07E0
07E0
07E0
07E0
07E0
07E0
07E0
07E0
07E0
07E0
07E0
07E0
1FE0
FFE0
FFE0
FFE0
FFC0
FF80
ENDCHAR
STARTCHAR k
ENCODING 107
SWIDTH 264 0
DWIDTH 20 0
BBX 16 49 2 0
BITMAP
F800
F800
F800
F800
F800
F800
F800
F800
F800
F800
F800
F81F
F81E
F81E
F83E
F83C
F87C
F878
F8F8
F8F0
F9F0
F9F0
FBE0
FBE0
FFC0
FFC0
FF80
FF80
FF80
FF80
FF80
FF80
FFC0
FFC0
FBC0
FBE0
FBE0
F9F0
F9F0
F9F0
F8F8
F8F8
F87C
F87C
F87C
F83E
F83E
F83F
F81F
ENDCHAR
STARTCHAR l
ENCODING 108
SWIDTH 122 0
DWIDTH 9 0
BBX 5 49 2 0
BITMAP
F8
F8
F8
F8
F8
F8
F8
F8
F8
F8
F8
F8
F8
F8
F8
F8
F8
F8
F8
F8
F8
F8
F8
F8
F8
F8
F8
F8
F8
F8
F8
F8
F8
F8
F8
F8
F8
F8
F8
F8
F8
F8
F8
F8
F8
F8
F8
F8
F8
ENDCHAR
STARTCHAR m
ENCODING 109
SWIDTH 415 0
DWIDTH 31 0
BBX 27 39 2 0
BITMAP
03F1FF00
FBFBFF80
FFFFFFC0
FFFFFFC0
FFFFFFE0
FC3F87E0
FC1F83E0
F81F03E0
F81F03E0
F81F03E0
F81F03E0
F81F03E0
F81F03E0
F81F03E0
F81F03E0
F81F03E0
F81F03E0
F81F03E0
F81F03E0
F81F03E0
F81F03E0
F81F03E0
F81F03E0
F81F03E0
F81F03E0
F81F03E0
F81F03E0
F81F03E0
F81F03E0
F81F03E0
F81F03E0
F81F03E0
F81F03E0
F81F03E0
F81F03E0
F81F03E0
F81F03E0
F81F03E0
F81F03E0
ENDCHAR
STARTCHAR n
ENCODING 110
SWIDTH 268 0
DWIDTH 20 0
BBX 16 39 2 0
BITMAP
03F8
FBFC
FFFE
FFFE
FFFF
FC3F
FC1F
F81F
F81F
F81F
F81F
F81F
F81F
F81F
F81F
F81F
F81F
F81F
F81F
F81F
F81F
F81F
F81F
F81F
F81F
F81F
F81F
F81F
F81F
F81F
F81F
F81F
F81F
F81F
F81F
F81F
F81F
F81F
F81F
ENDCHAR
STARTCHAR o
ENCODING 111
SWIDTH 268 0
DWIDTH 20 0
BBX 16 40 2 -1
BITMAP
1FF8
3FFC
7FFE
7FFE
FFFF
FC3F
FC1F
F81F
F81F
F81F
F81F
F81F
F81F
F81F
F81F
F81F
F81F
F81F
F81F
F81F
F81F
F81F
F81F
F81F
F81F
F81F
F81F
F81F
F81F
F81F
F81F
F81F
F81F
FC3F
FFFF
7FFE
7FFE
3FFC
1FF8
07F0
ENDCHAR
STARTCHAR p
ENCODING 112
SWIDTH 268 0
DWIDTH 20 0
BBX 16 50 2 -11
BITMAP
03F8
FBFC
FFFE
FFFE
FFFF
FC3F
FC1F
F81F
F81F
F81F
F81F
F81F
F81F
F81F
F81F
F81F
F81F
F81F
F81F
F81F
F81F
F81F
F81F
F81F
F81F
F81F
F81F
F81F
F81F
F81F
F81F
F81F
F81F
FC3F
FFFF
FFFE
FFFE
FFFC
FBF8
F9F0
F800
F800
F800
F800
F800
F800
F800
F800
F800
F800
ENDCHAR
STARTCHAR q
ENCODING 113
SWIDTH 268 0
DWIDTH 20 0
BBX 16 50 2 -11
BITMAP
1FC0
3FDF
7FFF
7FFF
FFFF
FC3F
FC1F
F81F
F81F
F81F
F81F
F81F
F81F
F81F
F81F
F81F
F81F
F81F
F81F
F81F
F81F
F81F
F81F
F81F
F81F
F81F
F81F
F81F
F81F
F81F
F81F
F81F
F81F
FC3F
FFFF
7FFF
7FFF
3FFF
1FDF
079F
001F
001F
001F
001F
001F
001F
001F
001F
001F
001F
ENDCHAR
STARTCHAR r
ENCODING 114
SWIDTH 268 0
DWIDTH 20 0
BBX 16 39 2 0
BITMAP
03F8
FBFC
FFFE
FFFE
FFFF
FC3F
FC1F
F81F
F81F
F81F
F800
F800
F800
F800
F800
F800
F800
F800
F800
F800
F800
F800
F800
F800
F800
F800
F800
F800
F800
F800
F800
F800
F800
F800
F800
F800
F800
F800
F800
ENDCHAR
STARTCHAR s
ENCODING 115
SWIDTH 268 0
DWIDTH 20 0
BBX 16 40 2 -1
BITMAP
1FF8
3FFC
7FFE
7FFE
FFFF
FC3F
FC1F
F81F
F81F
F81F
F81F
FC1F
FC00
7C00
7E00
3F00
3F00
1F80
0FC0
0FE0
07F0
03F8
01F8
00FC
00FE
007E
003F
003F
F81F
F81F
F81F
F81F
F81F
FC3F
FFFF
7FFE
7FFE
3FFC
1FF8
07F0
ENDCHAR
STARTCHAR t
ENCODING 116
SWIDTH 205 0
DWIDTH 15 0
BBX 12 49 2 0
BITMAP
1F80
1F80
1F80
1F80
1F80
1F80
1F80
1F80
1F80
1F80
1F80
FFF0
FFF0
FFF0
FFF0
FFF0
1F80
1F80
1F80
1F80
1F80
1F80
1F80
1F80
1F80
1F80
1F80
1F80
1F80
1F80
1F80
1F80
1F80
1F80
1F80
1F80
1F80
1F80
1F80
1F80
1F80
1F80
1F80
1FF0
1FF0
1FF0
1FF0
0FF0
07F0
ENDCHAR
STARTCHAR u
ENCODING 117
SWIDTH 268 0
DWIDTH 20 0
BBX 16 39 2 -1
BITMAP
F81F
F81F
F81F
F81F
F81F
F81F
F81F
F81F
F81F
F81F
F81F
F81F
F81F
F81F
F81F
F81F
F81F
F81F
F81F
F81F
F81F
F81F
F81F
F81F
F81F
F81F
F81F
F81F
F81F
F81F
F81F
F81F
FC3F
FFFF
7FFF
7FFF
3FFF
1FDF
0780
ENDCHAR
STARTCHAR v
ENCODING 118
SWIDTH 292 0
DWIDTH 22 0
BBX 19 38 2 0
BITMAP
FC07E0
FC07C0
FC07C0
7C0FC0
7C0FC0
7C0FC0
7E0FC0
7E0F80
7E0F80
3E0F80
3E1F80
3E1F80
3F1F00
3F1F00
3F1F00
1F1F00
1F3F00
1F3F00
1FBE00
1FBE00
1FBE00
0FBE00
0FBE00
0FFE00
0FFC00
0FFC00
0FFC00
07FC00
07FC00
07F800
07F800
07F800
07F800
03F800
03F800
03F000
03F000
03F000
ENDCHAR
STARTCHAR w
ENCODING 119
SWIDTH 410 0
DWIDTH 31 0
BBX 27 38 2 0
BITMAP
FC1F83E0
FC1F83E0
FC3F87E0
FC3F87E0
7C3F87E0
7C3F87C0
7C3F87C0
7C3F87C0
7E3FC7C0
7E3FC7C0
7E3FC7C0
3E7FCFC0
3E7FCF80
3E7FCF80
3E7FCF80
3E7FCF80
3E7FCF80
3F7FEF80
1F7FEF80
1F7FEF00
1FFFFF00
1FFBFF00
1FFBFF00
1FFBFF00
1FFBFF00
0FFBFF00
0FF9FE00
0FF1FE00
0FF1FE00
0FF1FE00
0FF1FE00
0FF1FE00
07F1FE00
07F0FC00
07E0FC00
07E0FC00
07E0FC00
07E0FC00
ENDCHAR
STARTCHAR x
ENCODING 120
SWIDTH 292 0
DWIDTH 22 0
BBX 18 38 2 0
BITMAP
FC07C0
FC0FC0
7C0FC0
7E0F80
7E1F80
3E1F80
3F1F00
3F1F00
1F3F00
1FBE00
1FBE00
0FFE00
0FFC00
0FFC00
07FC00
07F800
03F800
03F800
03F000
03F000
03F800
07F800
07F800
07FC00
0FFC00
0FBC00
0FBE00
1FBE00
1F3E00
1F1F00
3F1F00
3E1F00
3E1F80
7E0F80
7C0F80
7C0FC0
FC07C0
F807C0
ENDCHAR
STARTCHAR y
ENCODING 121
SWIDTH 292 0
DWIDTH 22 0
BBX 19 49 2 -11
BITMAP
FC07E0
FC07C0
FC07C0
7C0FC0
7C0FC0
7C0FC0
7E0FC0
7E0F80
7E0F80
3E0F80
3E1F80
3E1F80
3F1F00
3F1F00
3F1F00
1F1F00
1F3F00
1F3F00
1FBE00
1FBE00
1FBE00
0FBE00
0FBE00
0FFE00
0FFC00
0FFC00
0FFC00
07FC00
07FC00
07F800
07F800
07F800
07F800
03F800
03F800
03F000
03F000
03F000
03F000
03F000
03F000
03E000
03E000
0FE000
FFE000
FFE000
FFC000
FFC000
FF0000
ENDCHAR
STARTCHAR z
ENCODING 122
SWIDTH 263 0
DWIDTH 20 0
BBX 16 38 2 0
BITMAP
FFFF
FFFF
FFFF
FFFF
FFFF
001F
003F
003F
007E
007E
007E
00FC
00FC
01F8
01F8
03F0
03F0
03F0
07E0
07E0
0FC0
0FC0
0FC0
1F80
1F80
3F00
3F00
7E00
7E00
7E00
FC00
FC00
FFFF
FFFF
FFFF
FFFF
FFFF
FFFF
ENDCHAR
STARTCHAR braceleft
ENCODING 123
SWIDTH 244 0
DWIDTH 18 0
BBX 14 61 2 -6
BITMAP
007C
01FC
03FC
03FC
07FC
07FC
07C0
07C0
0FC0
0FC0
0FC0
0FC0
0FC0
0FC0
0FC0
0FC0
0FC0
0FC0
0FC0
0FC0
0FC0
0FC0
0FC0
0FC0
0FC0
0FC0
0FC0
3F80
FF80
FF00
FE00
FF00
FF80
1F80
0FC0
0FC0
0FC0
0FC0
0FC0
0FC0
0FC0
0FC0
0FC0
0FC0
0FC0
0FC0
0FC0
0FC0
0FC0
0FC0
0FC0
0FC0
0FC0
07C0
07E0
07FC
07FC
03FC
01FC
00FC
000C
ENDCHAR
STARTCHAR bar
ENCODING 124
SWIDTH 122 0
DWIDTH 9 0
BBX 5 61 2 -6
BITMAP
F8
F8
F8
F8
F8
F8
F8
F8
F8
F8
F8
F8
F8
F8
F8
F8
F8
F8
F8
F8
F8
F8
F8
F8
F8
F8
F8
F8
F8
F8
F8
F8
F8
F8
F8
F8
F8
F8
F8
F8
F8
F8
F8
F8
F8
F8
F8
F8
F8
F8
F8
F8
F8
F8
F8
F8
F8
F8
F8
F8
F8
ENDCHAR
STARTCHAR braceright
ENCODING 125
SWIDTH 244 0
DWIDTH 18 0
BBX 14 61 2 -6
BITMAP
F800
FE00
FF00
FF80
FF80
FF80
0FC0
0FC0
0FC0
0FC0
0FC0
0FC0
0FC0
0FC0
0FC0
0FC0
0FC0
0FC0
0FC0
0FC0
0FC0
0FC0
0FC0
0FC0
0FC0
07C0
07C0
07F0
03FC
03FC
01FC
03FC
07FC
07E0
07C0
0FC0
0FC0
0FC0
0FC0
0FC0
0FC0
0FC0
0FC0
0FC0
0FC0
0FC0
0FC0
0FC0
0FC0
0FC0
0FC0
0FC0
0FC0
0FC0
1FC0
FF80
FF80
FF00
FF00
FC00
E000
ENDCHAR
STARTCHAR asciitilde
ENCODING 126
SWIDTH 317 0
DWIDTH 24 0
BBX 20 7 2 55
BITMAP
0FC3F0
3FF7F0
7FFFE0
7FFFE0
FFFFC0
FCFF80
F83F00
ENDCHAR
STARTCHAR space.dup2
ENCODING 160
SWIDTH 244 0
DWIDTH 18 0
BBX 1 1 0 0
BITMAP
00
ENDCHAR
STARTCHAR exclamdown
ENCODING 161
SWIDTH 122 0
DWIDTH 9 0
BBX 5 49 2 0
BITMAP
F8
F8
F8
F8
F8
00
00
00
00
00
00
F8
F8
F8
F8
F8
F8
F8
F8
F8
F8
F8
F8
F8
F8
F8
F8
F8
F8
F8
F8
F8
F8
F8
F8
F8
F8
F8
F8
F8
F8
F8
F8
F8
F8
F8
F8
F8
F8
ENDCHAR
STARTCHAR cent
ENCODING 162
SWIDTH 268 0
DWIDTH 20 0
BBX 16 49 2 0
BITMAP
07E0
07E0
07E0
07E0
07E0
1FF8
3FFC
7FFE
7FFE
FFFF
FC3F
F81F
F81F
F81F
F81F
F81F
F81F
F81F
F800
F800
F800
F800
F800
F800
F800
F800
F800
F800
F800
F800
F800
F81F
F81F
F81F
F81F
F81F
F81F
FC1F
FC3F
FFFF
7FFE
7FFE
3FFC
1FF8
07E0
07E0
07E0
07E0
07E0
ENDCHAR
STARTCHAR sterling
ENCODING 163
SWIDTH 292 0
DWIDTH 22 0
BBX 18 50 2 0
BITMAP
01FFC0
03FFC0
07FFC0
07FFC0
0FFFC0
0FC000
0F8000
0F8000
0F8000
1F8000
1F8000
1F8000
1F8000
1F8000
1F8000
1F8000
1F8000
1F8000
1F8000
1F8000
1F8000
1F8000
1F8000
FFF800
FFF800
FFF800
FFF800
FFF800
1F8000
1F8000
1F8000
1F8000
1F8000
1F8000
1F8000
1F8000
1F8000
1F8000
1F8000
1F8000
1F8000
1F8000
1F8000
1F0000
3FFFC0
FFFFC0
FFFFC0
FFFFC0
FFFFC0
FFFFC0
ENDCHAR
STARTCHAR currency
ENCODING 164
SWIDTH 305 0
DWIDTH 23 0
BBX 19 39 2 5
BITMAP
FC07E0
FC07C0
7C0FC0
7E0FC0
7E0F80
3E1F80
3FDF80
3FFF00
1FFF00
3FFF00
3FFF00
7FFF80
7E1F80
7C0F80
7C0F80
7C0F80
7C0F80
7C0F80
7C0F80
7C0F80
7C0F80
7C0F80
7C0F80
7C0F80
7E1F80
7F3F80
7FFF80
3FFF00
3FFF00
1FFF00
1FFF00
3E1F00
3E1F80
3E0F80
7E0F80
7C0FC0
FC0FC0
FC07C0
F807E0
ENDCHAR
STARTCHAR yen
ENCODING 165
SWIDTH 292 0
DWIDTH 22 0
BBX 20 49 1 0
BITMAP
FE07F0
FE07F0
7E07E0
7E07E0
7F0FE0
3F0FC0
3F0FC0
3F9FC0
3F9FC0
1F9F80
1F9F80
1FFF80
0FFF00
0FFF00
0FFF00
0FFF00
07FE00
07FE00
07FE00
07FE00
03FC00
03FC00
03FC00
7FFFE0
7FFFE0
7FFFE0
7FFFE0
7FFFE0
7FFFE0
01F800
01F800
01F800
01F800
01F800
7FFFE0
7FFFE0
7FFFE0
7FFFE0
7FFFE0
7FFFE0
01F800
01F800
01F800
01F800
01F800
01F800
01F800
01F800
01F800
ENDCHAR
STARTCHAR brokenbar
ENCODING 166
SWIDTH 122 0
DWIDTH 9 0
BBX 5 61 2 -6
BITMAP
F8
F8
F8
F8
F8
F8
F8
F8
F8
F8
F8
F8
F8
F8
F8
F8
F8
F8
F8
F8
F8
F8
F8
F8
F8
F8
F8
F8
00
00
00
00
00
F8
F8
F8
F8
F8
F8
F8
F8
F8
F8
F8
F8
F8
F8
F8
F8
F8
F8
F8
F8
F8
F8
F8
F8
F8
F8
F8
F8
ENDCHAR
STARTCHAR section
ENCODING 167
SWIDTH 292 0
DWIDTH 22 0
BBX 18 59 2 -5
BITMAP
0FFC00
1FFE00
3FFF00
7FFF80
7FFF80
FF3FC0
FC0FC0
F807C0
F807C0
F807C0
F807C0
F807C0
F807C0
F807C0
F80000
F80000
F8E000
FFFC00
FFFE00
FFFF00
FFFF00
FFFF80
FE1F80
7C0F80
7C0F80
7C0F80
7C0F80
7C0F80
7C0F80
7C0F80
7C0F80
7C0F80
7C0F80
7C0F80
7E1F80
7F3FC0
7FFFC0
3FFFC0
3FFFC0
1FFFC0
07FFC0
0007C0
0007C0
0007C0
0007C0
F807C0
F807C0
F807C0
F807C0
F807C0
F807C0
F80FC0
FC0FC0
FFFFC0
7FFF80
7FFF80
3FFF00
1FFE00
03F000
ENDCHAR
STARTCHAR dieresis
ENCODING 168
SWIDTH 244 0
DWIDTH 18 0
BBX 14 5 2 55
BITMAP
F87C
F87C
F87C
F87C
F87C
ENDCHAR
STARTCHAR copyright
ENCODING 169
SWIDTH 366 0
DWIDTH 27 0
BBX 24 39 2 18
BITMAP
003800
01FF00
03FF80
07FFC0
0F83E0
0F01F0
1E00F8
3C0078
3CFE3C
78FE3C
79C73C
79C71E
71C71E
F1C71E
F1C70E
F1C00E
F1C00E
F1C00F
F1C00F
F1C00F
F1C00F
F1C00F
F1C00F
F1C00E
F1C00E
F1C71E
71C71E
79C71E
79C73C
39EF3C
3CFE38
3C7E78
1E00F0
0F01F0
0FC3E0
07FFC0
03FF80
01FF00
003800
ENDCHAR
STARTCHAR ordfeminine
ENCODING 170
SWIDTH 805 0
DWIDTH 60 0
BBX 55 55 0 0
BITMAP
0FFFFFFFFFFFE0
30000000000018
6000000000000C
40000000000004
80000000000002
80000000000002
80000000000002
80000000000002
80000000000002
80000000000002
80000000000002
80000000000002
80000000000002
80000000000002
80000000000002
80000000000002
80000000000002
80000000000002
80000000000002
80000000000002
80000000000002
80000000000002
80000000000002
80000000000002
80000000000002
80000000000002
80000000000002
80000000000002
80000000000002
80000000000002
80000000000002
80000000000002
80000000000002
80000000000002
80000000000002
80000000000002
80000000000002
80000000000002
80000000000002
80000000000002
80000000000002
80000000000002
80000000000002
80000000000002
80000000000002
80000000000002
80000000000002
80000000000002
80000000000002
80000000000002
80000000000002
40000000000004
6000000000000C
30000000000018
0FFFFFFFFFFFE0
ENDCHAR
STARTCHAR guillemotleft
ENCODING 171
SWIDTH 439 0
DWIDTH 33 0
BBX 29 37 2 6
BITMAP
001FC3F8
001F83F0
003F87E0
007F0FE0
007E0FC0
00FE1FC0
01FC3F80
01F83F00
03F87F00
03F07E00
07E0FC00
0FE1FC00
0FC1F800
1F83F000
3F87F000
3F07E000
7E0FC000
FE1FC000
FC1F8000
7E0FC000
7F0FE000
3F07E000
1F83F000
1FC3F800
0FC1F800
07E0FC00
07F0FE00
03F07E00
03F87F00
01FC3F80
00FC1F80
00FE1FC0
007E0FC0
003F07E0
003F87F0
001F83F0
000FC1F8
ENDCHAR
STARTCHAR logicalnot
ENCODING 172
SWIDTH 495 0
DWIDTH 37 0
BBX 31 18 5 10
BITMAP
FFFFFFFE
FFFFFFFE
FFFFFFFE
FFFFFFFE
0000001E
0000001E
0000001E
0000001E
0000001E
0000001E
0000001E
0000001E
0000001E
0000001E
0000001E
0000001E
0000001E
0000001E
ENDCHAR
STARTCHAR hyphen.dup3
ENCODING 173
SWIDTH 268 0
DWIDTH 20 0
BBX 16 5 2 22
BITMAP
FFFF
FFFF
FFFF
FFFF
FFFF
ENDCHAR
STARTCHAR registered
ENCODING 174
SWIDTH 366 0
DWIDTH 27 0
BBX 24 39 2 18
BITMAP
003800
01FF00
03FF80
07FFC0
0F83E0
0F01F0
1E00F8
3C0078
3CFE3C
78FE3C
78CF3C
78C71E
70C71E
F0C71E
F0C70E
F0C70E
F0C70E
F0C70F
F0FE0F
F0FC0F
F0FE0F
F0C70F
F0C70F
F0C70E
F0C70E
F0C71E
70C71E
78C71E
78C73C
38C73C
3CC738
3CC778
1E00F0
0F01F0
0FC3E0
07FFC0
03FF80
01FF00
003800
ENDCHAR
STARTCHAR macron
ENCODING 175
SWIDTH 805 0
DWIDTH 60 0
BBX 55 55 0 0
BITMAP
0FFFFFFFFFFFE0
30000000000018
6000000000000C
40000000000004
80000000000002
80000000000002
80000000000002
80000000000002
80000000000002
80000000000002
80000000000002
80000000000002
80000000000002
80000000000002
80000000000002
80000000000002
80000000000002
80000000000002
80000000000002
80000000000002
80000000000002
80000000000002
80000000000002
80000000000002
80000000000002
80000000000002
80000000000002
80000000000002
80000000000002
80000000000002
80000000000002
80000000000002
80000000000002
80000000000002
80000000000002
80000000000002
80000000000002
80000000000002
80000000000002
80000000000002
80000000000002
80000000000002
80000000000002
80000000000002
80000000000002
80000000000002
80000000000002
80000000000002
80000000000002
80000000000002
80000000000002
40000000000004
6000000000000C
30000000000018
0FFFFFFFFFFFE0
ENDCHAR
STARTCHAR degree
ENCODING 176
SWIDTH 329 0
DWIDTH 25 0
BBX 20 21 4 32
BITMAP
00F800
07FE00
0FFF80
1E03C0
3801E0
7000E0
700070
E00070
E00030
E00030
E00030
E00030
E00030
E00070
700070
7800E0
3C01C0
1F0780
0FFF00
03FE00
002000
ENDCHAR
STARTCHAR plusminus
ENCODING 177
SWIDTH 805 0
DWIDTH 60 0
BBX 55 55 0 0
BITMAP
0FFFFFFFFFFFE0
30000000000018
6000000000000C
40000000000004
80000000000002
80000000000002
80000000000002
80000000000002
80000000000002
80000000000002
80000000000002
80000000000002
80000000000002
80000000000002
80000000000002
80000000000002
80000000000002
80000000000002
80000000000002
80000000000002
80000000000002
80000000000002
80000000000002
80000000000002
80000000000002
80000000000002
80000000000002
80000000000002
80000000000002
80000000000002
80000000000002
80000000000002
80000000000002
80000000000002
80000000000002
80000000000002
80000000000002
80000000000002
80000000000002
80000000000002
80000000000002
80000000000002
80000000000002
80000000000002
80000000000002
80000000000002
80000000000002
80000000000002
80000000000002
80000000000002
80000000000002
40000000000004
6000000000000C
30000000000018
0FFFFFFFFFFFE0
ENDCHAR
STARTCHAR uni00B2
ENCODING 178
SWIDTH 805 0
DWIDTH 60 0
BBX 55 55 0 0
BITMAP
0FFFFFFFFFFFE0
30000000000018
6000000000000C
40000000000004
80000000000002
80000000000002
80000000000002
80000000000002
80000000000002
80000000000002
80000000000002
80000000000002
80000000000002
80000000000002
80000000000002
80000000000002
80000000000002
80000000000002
80000000000002
80000000000002
80000000000002
80000000000002
80000000000002
80000000000002
80000000000002
80000000000002
80000000000002
80000000000002
80000000000002
80000000000002
80000000000002
80000000000002
80000000000002
80000000000002
80000000000002
80000000000002
80000000000002
80000000000002
80000000000002
80000000000002
80000000000002
80000000000002
80000000000002
80000000000002
80000000000002
80000000000002
80000000000002
80000000000002
80000000000002
80000000000002
80000000000002
40000000000004
6000000000000C
30000000000018
0FFFFFFFFFFFE0
ENDCHAR
STARTCHAR uni00B3
ENCODING 179
SWIDTH 805 0
DWIDTH 60 0
BBX 55 55 0 0
BITMAP
0FFFFFFFFFFFE0
30000000000018
6000000000000C
40000000000004
80000000000002
80000000000002
80000000000002
80000000000002
80000000000002
80000000000002
80000000000002
80000000000002
80000000000002
80000000000002
80000000000002
80000000000002
80000000000002
80000000000002
80000000000002
80000000000002
80000000000002
80000000000002
80000000000002
80000000000002
80000000000002
80000000000002
80000000000002
80000000000002
80000000000002
80000000000002
80000000000002
80000000000002
80000000000002
80000000000002
80000000000002
80000000000002
80000000000002
80000000000002
80000000000002
80000000000002
80000000000002
80000000000002
80000000000002
80000000000002
80000000000002
80000000000002
80000000000002
80000000000002
80000000000002
80000000000002
80000000000002
40000000000004
6000000000000C
30000000000018
0FFFFFFFFFFFE0
ENDCHAR
STARTCHAR acute
ENCODING 180
SWIDTH 292 0
DWIDTH 22 0
BBX 18 9 2 55
BITMAP
003000
00FC00
01FF00
07FFC0
0FFF00
3FF800
7FC000
FF0000
380000
ENDCHAR
STARTCHAR mu
ENCODING 181
SWIDTH 268 0
DWIDTH 20 0
BBX 16 49 2 -11
BITMAP
F81F
F81F
F81F
F81F
F81F
F81F
F81F
F81F
F81F
F81F
F81F
F81F
F81F
F81F
F81F
F81F
F81F
F81F
F81F
F81F
F81F
F81F
F81F
F81F
F81F
F81F
F81F
F81F
F81F
F81F
F81F
F81F
FC3F
FFFF
FFFF
FFFF
FFFF
FBDF
F980
F800
F800
F800
F800
F800
F800
F800
F800
F800
F800
ENDCHAR
STARTCHAR paragraph
ENCODING 182
SWIDTH 500 0
DWIDTH 38 0
BBX 31 53 5 0
BITMAP
0003FFFE
00FFFFFE
03FFFFFE
07FF81C0
0FFF81C0
1FFF81C0
3FFF81C0
7FFF81C0
7FFF81C0
7FFF81C0
FFFF81C0
FFFF81C0
FFFF81C0
FFFF81C0
FFFF81C0
FFFF81C0
7FFF81C0
7FFF81C0
7FFF81C0
3FFF81C0
3FFF81C0
1FFF81C0
0FFF81C0
07FF81C0
01FF81C0
003F81C0
000381C0
000381C0
000381C0
000381C0
000381C0
000381C0
000381C0
000381C0
000381C0
000381C0
000381C0
000381C0
000381C0
000381C0
000381C0
000381C0
000381C0
000381C0
000381C0
000381C0
000381C0
000381C0
000381C0
000381C0
000381C0
000381C0
000381C0
ENDCHAR
STARTCHAR periodcentered
ENCODING 183
SWIDTH 122 0
DWIDTH 9 0
BBX 5 6 2 23
BITMAP
F8
F8
F8
F8
F8
F8
ENDCHAR
STARTCHAR cedilla
ENCODING 184
SWIDTH 292 0
DWIDTH 22 0
BBX 18 18 2 -13
BITMAP
007800
007E00
007F00
007F80
007F80
001FC0
000FC0
000FC0
0007C0
F807C0
FC0FC0
FE1FC0
7FFF80
7FFF80
3FFF00
1FFE00
0FFC00
01E000
ENDCHAR
STARTCHAR uni00B9
ENCODING 185
SWIDTH 805 0
DWIDTH 60 0
BBX 55 55 0 0
BITMAP
0FFFFFFFFFFFE0
30000000000018
6000000000000C
40000000000004
80000000000002
80000000000002
80000000000002
80000000000002
80000000000002
80000000000002
80000000000002
80000000000002
80000000000002
80000000000002
80000000000002
80000000000002
80000000000002
80000000000002
80000000000002
80000000000002
80000000000002
80000000000002
80000000000002
80000000000002
80000000000002
80000000000002
80000000000002
80000000000002
80000000000002
80000000000002
80000000000002
80000000000002
80000000000002
80000000000002
80000000000002
80000000000002
80000000000002
80000000000002
80000000000002
80000000000002
80000000000002
80000000000002
80000000000002
80000000000002
80000000000002
80000000000002
80000000000002
80000000000002
80000000000002
80000000000002
80000000000002
40000000000004
6000000000000C
30000000000018
0FFFFFFFFFFFE0
ENDCHAR
STARTCHAR ordmasculine
ENCODING 186
SWIDTH 805 0
DWIDTH 60 0
BBX 55 55 0 0
BITMAP
0FFFFFFFFFFFE0
30000000000018
6000000000000C
40000000000004
80000000000002
80000000000002
80000000000002
80000000000002
80000000000002
80000000000002
80000000000002
80000000000002
80000000000002
80000000000002
80000000000002
80000000000002
80000000000002
80000000000002
80000000000002
80000000000002
80000000000002
80000000000002
80000000000002
80000000000002
80000000000002
80000000000002
80000000000002
80000000000002
80000000000002
80000000000002
80000000000002
80000000000002
80000000000002
80000000000002
80000000000002
80000000000002
80000000000002
80000000000002
80000000000002
80000000000002
80000000000002
80000000000002
80000000000002
80000000000002
80000000000002
80000000000002
80000000000002
80000000000002
80000000000002
80000000000002
80000000000002
40000000000004
6000000000000C
30000000000018
0FFFFFFFFFFFE0
ENDCHAR
STARTCHAR guillemotright
ENCODING 187
SWIDTH 439 0
DWIDTH 33 0
BBX 29 37 2 6
BITMAP
FE1FC000
7E0FC000
7F0FE000
3F87F000
1F83F000
1FC3F800
0FC1F800
07E0FC00
07F0FE00
03F07E00
01F83F00
01FC3F80
00FC1F80
007E0FC0
007F0FE0
003F07E0
001F83F0
001FC3F8
000FC1F8
001F83F0
003F87F0
003F07E0
007E0FC0
00FE1FC0
00FC1F80
01F83F00
03F87F00
03F07E00
07F0FC00
0FE1FC00
0FC1F800
1FC3F800
3F87F000
3F07E000
7F0FE000
7E0FC000
FC1F8000
ENDCHAR
STARTCHAR onequarter
ENCODING 188
SWIDTH 805 0
DWIDTH 60 0
BBX 55 55 0 0
BITMAP
0FFFFFFFFFFFE0
30000000000018
6000000000000C
40000000000004
80000000000002
80000000000002
80000000000002
80000000000002
80000000000002
80000000000002
80000000000002
80000000000002
80000000000002
80000000000002
80000000000002
80000000000002
80000000000002
80000000000002
80000000000002
80000000000002
80000000000002
80000000000002
80000000000002
80000000000002
80000000000002
80000000000002
80000000000002
80000000000002
80000000000002
80000000000002
80000000000002
80000000000002
80000000000002
80000000000002
80000000000002
80000000000002
80000000000002
80000000000002
80000000000002
80000000000002
80000000000002
80000000000002
80000000000002
80000000000002
80000000000002
80000000000002
80000000000002
80000000000002
80000000000002
80000000000002
80000000000002
40000000000004
6000000000000C
30000000000018
0FFFFFFFFFFFE0
ENDCHAR
STARTCHAR onehalf
ENCODING 189
SWIDTH 805 0
DWIDTH 60 0
BBX 55 55 0 0
BITMAP
0FFFFFFFFFFFE0
30000000000018
6000000000000C
40000000000004
80000000000002
80000000000002
80000000000002
80000000000002
80000000000002
80000000000002
80000000000002
80000000000002
80000000000002
80000000000002
80000000000002
80000000000002
80000000000002
80000000000002
80000000000002
80000000000002
80000000000002
80000000000002
80000000000002
80000000000002
80000000000002
80000000000002
80000000000002
80000000000002
80000000000002
80000000000002
80000000000002
80000000000002
80000000000002
80000000000002
80000000000002
80000000000002
80000000000002
80000000000002
80000000000002
80000000000002
80000000000002
80000000000002
80000000000002
80000000000002
80000000000002
80000000000002
80000000000002
80000000000002
80000000000002
80000000000002
80000000000002
40000000000004
6000000000000C
30000000000018
0FFFFFFFFFFFE0
ENDCHAR
STARTCHAR threequarters
ENCODING 190
SWIDTH 805 0
DWIDTH 60 0
BBX 55 55 0 0
BITMAP
0FFFFFFFFFFFE0
30000000000018
6000000000000C
40000000000004
80000000000002
80000000000002
80000000000002
80000000000002
80000000000002
80000000000002
80000000000002
80000000000002
80000000000002
80000000000002
80000000000002
80000000000002
80000000000002
80000000000002
80000000000002
80000000000002
80000000000002
80000000000002
80000000000002
80000000000002
80000000000002
80000000000002
80000000000002
80000000000002
80000000000002
80000000000002
80000000000002
80000000000002
80000000000002
80000000000002
80000000000002
80000000000002
80000000000002
80000000000002
80000000000002
80000000000002
80000000000002
80000000000002
80000000000002
80000000000002
80000000000002
80000000000002
80000000000002
80000000000002
80000000000002
80000000000002
80000000000002
40000000000004
6000000000000C
30000000000018
0FFFFFFFFFFFE0
ENDCHAR
STARTCHAR questiondown
ENCODING 191
SWIDTH 268 0
DWIDTH 20 0
BBX 16 50 2 -1
BITMAP
03F0
03F0
03F0
03F0
03F0
0000
0000
0000
0000
03F0
03F0
03F0
03F0
03F0
03F0
07E0
07E0
07E0
0FC0
0FC0
1FC0
1F80
3F80
3F00
7F00
7E00
7E00
FC00
FC00
FC00
FC00
F800
F800
F800
F800
F800
F81F
F81F
F81F
F81F
F81F
F81F
F81F
FC3F
FFFF
7FFE
7FFE
3FFC
1FF8
07F0
ENDCHAR
STARTCHAR Agrave
ENCODING 192
SWIDTH 292 0
DWIDTH 22 0
BBX 20 64 1 0
BITMAP
018000
07E000
1FF000
7FFC00
1FFE00
03FF80
007FC0
001FE0
000380
000000
000000
000000
000000
000000
000000
03FC00
03FC00
03FC00
03FC00
03FC00
03FC00
07FE00
07FE00
07FE00
07FE00
07FE00
07FE00
07FE00
07FE00
0FFF00
0FFF00
0FFF00
0FFF00
0FFF00
0FFF00
0FFF00
1FFF80
1FFF80
1FFF80
1FFF80
1F9F80
1F9F80
1F9F80
1F9F80
3F9FC0
3F9FC0
3F9FC0
3F0FC0
3FFFC0
3FFFC0
3FFFC0
3FFFC0
7FFFE0
7F0FE0
7F0FE0
7E07E0
7E07E0
7E07E0
7E07E0
FE07E0
FE07F0
FE07F0
FE07F0
FC03F0
ENDCHAR
STARTCHAR Aacute
ENCODING 193
SWIDTH 292 0
DWIDTH 22 0
BBX 20 64 1 0
BITMAP
001800
007E00
00FF80
03FFE0
07FF80
1FFC00
3FE000
7F8000
1C0000
000000
000000
000000
000000
000000
000000
03FC00
03FC00
03FC00
03FC00
03FC00
03FC00
07FE00
07FE00
07FE00
07FE00
07FE00
07FE00
07FE00
07FE00
0FFF00
0FFF00
0FFF00
0FFF00
0FFF00
0FFF00
0FFF00
1FFF80
1FFF80
1FFF80
1FFF80
1F9F80
1F9F80
1F9F80
1F9F80
3F9FC0
3F9FC0
3F9FC0
3F0FC0
3FFFC0
3FFFC0
3FFFC0
3FFFC0
7FFFE0
7F0FE0
7F0FE0
7E07E0
7E07E0
7E07E0
7E07E0
FE07E0
FE07F0
FE07F0
FE07F0
FC03F0
ENDCHAR
STARTCHAR Acircumflex
ENCODING 194
SWIDTH 292 0
DWIDTH 22 0
BBX 20 62 1 0
BITMAP
01F800
03FC00
07FE00
0F9F00
1F9F80
3F0FC0
7E07E0
000000
000000
000000
000000
000000
000000
03FC00
03FC00
03FC00
03FC00
03FC00
03FC00
07FE00
07FE00
07FE00
07FE00
07FE00
07FE00
07FE00
07FE00
0FFF00
0FFF00
0FFF00
0FFF00
0FFF00
0FFF00
0FFF00
1FFF80
1FFF80
1FFF80
1FFF80
1F9F80
1F9F80
1F9F80
1F9F80
3F9FC0
3F9FC0
3F9FC0
3F0FC0
3FFFC0
3FFFC0
3FFFC0
3FFFC0
7FFFE0
7F0FE0
7F0FE0
7E07E0
7E07E0
7E07E0
7E07E0
FE07E0
FE07F0
FE07F0
FE07F0
FC03F0
ENDCHAR
STARTCHAR Atilde
ENCODING 195
SWIDTH 292 0
DWIDTH 22 0
BBX 20 62 1 0
BITMAP
0FC3F0
3FF7F0
7FFFF0
7FFFE0
FFFFC0
FCFF80
FC3F00
000000
000000
000000
000000
000000
000000
03FC00
03FC00
03FC00
03FC00
03FC00
03FC00
07FE00
07FE00
07FE00
07FE00
07FE00
07FE00
07FE00
07FE00
0FFF00
0FFF00
0FFF00
0FFF00
0FFF00
0FFF00
0FFF00
1FFF80
1FFF80
1FFF80
1FFF80
1F9F80
1F9F80
1F9F80
1F9F80
3F9FC0
3F9FC0
3F9FC0
3F0FC0
3FFFC0
3FFFC0
3FFFC0
3FFFC0
7FFFE0
7F0FE0
7F0FE0
7E07E0
7E07E0
7E07E0
7E07E0
FE07E0
FE07F0
FE07F0
FE07F0
FC03F0
ENDCHAR
STARTCHAR Adieresis
ENCODING 196
SWIDTH 292 0
DWIDTH 22 0
BBX 20 60 1 0
BITMAP
1F0F80
1F0F80
1F0F80
1F0F80
1F0F80
000000
000000
000000
000000
000000
000000
03FC00
03FC00
03FC00
03FC00
03FC00
03FC00
07FE00
07FE00
07FE00
07FE00
07FE00
07FE00
07FE00
07FE00
0FFF00
0FFF00
0FFF00
0FFF00
0FFF00
0FFF00
0FFF00
1FFF80
1FFF80
1FFF80
1FFF80
1F9F80
1F9F80
1F9F80
1F9F80
3F9FC0
3F9FC0
3F9FC0
3F0FC0
3FFFC0
3FFFC0
3FFFC0
3FFFC0
7FFFE0
7F0FE0
7F0FE0
7E07E0
7E07E0
7E07E0
7E07E0
FE07E0
FE07F0
FE07F0
FE07F0
FC03F0
ENDCHAR
STARTCHAR Aring
ENCODING 197
SWIDTH 292 0
DWIDTH 22 0
BBX 20 66 1 0
BITMAP
00F000
03FC00
07FE00
0FFF00
0FFF00
0FFF00
0F9F00
0FFF00
0FFF00
0FFF00
07FE00
03FC00
00F000
000000
000000
000000
000000
03FC00
03FC00
03FC00
03FC00
03FC00
03FC00
07FE00
07FE00
07FE00
07FE00
07FE00
07FE00
07FE00
07FE00
0FFF00
0FFF00
0FFF00
0FFF00
0FFF00
0FFF00
0FFF00
1FFF80
1FFF80
1FFF80
1FFF80
1F9F80
1F9F80
1F9F80
1F9F80
3F9FC0
3F9FC0
3F9FC0
3F0FC0
3FFFC0
3FFFC0
3FFFC0
3FFFC0
7FFFE0
7F0FE0
7F0FE0
7E07E0
7E07E0
7E07E0
7E07E0
FE07E0
FE07F0
FE07F0
FE07F0
FC03F0
ENDCHAR
STARTCHAR AE
ENCODING 198
SWIDTH 463 0
DWIDTH 35 0
BBX 32 49 1 0
BITMAP
03FFFFFF
03FFFFFF
03FFFFFF
03FFFFFF
03FFFFFF
03FFE000
07FFE000
07FFE000
07FFE000
07FFE000
07FFE000
07FFE000
07FFE000
07FFE000
0FFFE000
0FFFE000
0FFFE000
0FFFE000
0FFFE000
0FFFE000
0FFFE000
1FFFE000
1FFFFFF0
1FFFFFF0
1FFFFFF0
1F9FFFF0
1F9FFFF0
1F9FE000
1F9FE000
3F9FE000
3F9FE000
3F9FE000
3F0FE000
3FFFE000
3FFFE000
3FFFE000
3FFFE000
7FFFE000
7F0FE000
7F0FE000
7E07E000
7E07E000
7E07E000
7E07FFFF
FE07FFFF
FE07FFFF
FE07FFFF
FE07FFFF
FC03FFFF
ENDCHAR
STARTCHAR Ccedilla
ENCODING 199
SWIDTH 292 0
DWIDTH 22 0
BBX 18 64 2 -14
BITMAP
0FFC00
3FFF00
7FFF00
7FFF80
FFFF80
FC0FC0
FC0FC0
F807C0
F807C0
F807C0
F807C0
F807C0
F807C0
F80000
F80000
F80000
F80000
F80000
F80000
F80000
F80000
F80000
F80000
F80000
F80000
F80000
F80000
F80000
F80000
F80000
F80000
F80000
F80000
F80000
F80000
F80000
F80000
F807C0
F807C0
F807C0
F807C0
F807C0
F807C0
F807C0
FC0FC0
FFFFC0
7FFF80
7FFF80
3FFF00
1FFF80
07FF80
001FC0
000FC0
000FC0
0007C0
F807C0
FC0FC0
FE1FC0
7FFF80
7FFF80
3FFF00
1FFE00
0FFC00
01E000
ENDCHAR
STARTCHAR Egrave
ENCODING 200
SWIDTH 292 0
DWIDTH 22 0
BBX 18 64 2 0
BITMAP
030000
0FC000
3FE000
FFF800
3FFC00
07FF00
00FF80
003FC0
000700
000000
000000
000000
000000
000000
000000
FFFFC0
FFFFC0
FFFFC0
FFFFC0
FFFFC0
F80000
F80000
F80000
F80000
F80000
F80000
F80000
F80000
F80000
F80000
F80000
F80000
F80000
F80000
F80000
F80000
F80000
FFFC00
FFFC00
FFFC00
FFFC00
FFFC00
F80000
F80000
F80000
F80000
F80000
F80000
F80000
F80000
F80000
F80000
F80000
F80000
F80000
F80000
F80000
F80000
FFFFC0
FFFFC0
FFFFC0
FFFFC0
FFFFC0
FFFFC0
ENDCHAR
STARTCHAR Eacute
ENCODING 201
SWIDTH 292 0
DWIDTH 22 0
BBX 18 64 2 0
BITMAP
003000
00FC00
01FF00
07FFC0
0FFF00
3FF800
7FC000
FF0000
380000
000000
000000
000000
000000
000000
000000
FFFFC0
FFFFC0
FFFFC0
FFFFC0
FFFFC0
F80000
F80000
F80000
F80000
F80000
F80000
F80000
F80000
F80000
F80000
F80000
F80000
F80000
F80000
F80000
F80000
F80000
FFFC00
FFFC00
FFFC00
FFFC00
FFFC00
F80000
F80000
F80000
F80000
F80000
F80000
F80000
F80000
F80000
F80000
F80000
F80000
F80000
F80000
F80000
F80000
FFFFC0
FFFFC0
FFFFC0
FFFFC0
FFFFC0
FFFFC0
ENDCHAR
STARTCHAR Ecircumflex
ENCODING 202
SWIDTH 292 0
DWIDTH 22 0
BBX 18 62 2 0
BITMAP
03F000
07F800
0FFC00
1F3E00
3F3F00
7E1F80
FC0FC0
000000
000000
000000
000000
000000
000000
FFFFC0
FFFFC0
FFFFC0
FFFFC0
FFFFC0
F80000
F80000
F80000
F80000
F80000
F80000
F80000
F80000
F80000
F80000
F80000
F80000
F80000
F80000
F80000
F80000
F80000
FFFC00
FFFC00
FFFC00
FFFC00
FFFC00
F80000
F80000
F80000
F80000
F80000
F80000
F80000
F80000
F80000
F80000
F80000
F80000
F80000
F80000
F80000
F80000
FFFFC0
FFFFC0
FFFFC0
FFFFC0
FFFFC0
FFFFC0
ENDCHAR
STARTCHAR Edieresis
ENCODING 203
SWIDTH 292 0
DWIDTH 22 0
BBX 18 60 2 0
BITMAP
3E1F00
3E1F00
3E1F00
3E1F00
3E1F00
000000
000000
000000
000000
000000
000000
FFFFC0
FFFFC0
FFFFC0
FFFFC0
FFFFC0
F80000
F80000
F80000
F80000
F80000
F80000
F80000
F80000
F80000
F80000
F80000
F80000
F80000
F80000
F80000
F80000
F80000
FFFC00
FFFC00
FFFC00
FFFC00
FFFC00
F80000
F80000
F80000
F80000
F80000
F80000
F80000
F80000
F80000
F80000
F80000
F80000
F80000
F80000
F80000
F80000
FFFFC0
FFFFC0
FFFFC0
FFFFC0
FFFFC0
FFFFC0
ENDCHAR
STARTCHAR Igrave
ENCODING 204
SWIDTH 122 0
DWIDTH 9 0
BBX 17 64 -4 0
BITMAP
030000
0F8000
3FE000
FFF000
3FFC00
07FE00
01FF80
003F80
000600
000000
000000
000000
000000
000000
000000
03E000
03E000
03E000
03E000
03E000
03E000
03E000
03E000
03E000
03E000
03E000
03E000
03E000
03E000
03E000
03E000
03E000
03E000
03E000
03E000
03E000
03E000
03E000
03E000
03E000
03E000
03E000
03E000
03E000
03E000
03E000
03E000
03E000
03E000
03E000
03E000
03E000
03E000
03E000
03E000
03E000
03E000
03E000
03E000
03E000
03E000
03E000
03E000
03E000
ENDCHAR
STARTCHAR Iacute
ENCODING 205
SWIDTH 122 0
DWIDTH 9 0
BBX 18 64 -4 0
BITMAP
007000
00FC00
03FF00
07FFC0
1FFE00
3FF800
7FC000
FE0000
380000
000000
000000
000000
000000
000000
000000
03E000
03E000
03E000
03E000
03E000
03E000
03E000
03E000
03E000
03E000
03E000
03E000
03E000
03E000
03E000
03E000
03E000
03E000
03E000
03E000
03E000
03E000
03E000
03E000
03E000
03E000
03E000
03E000
03E000
03E000
03E000
03E000
03E000
03E000
03E000
03E000
03E000
03E000
03E000
03E000
03E000
03E000
03E000
03E000
03E000
03E000
03E000
03E000
03E000
ENDCHAR
STARTCHAR Icircumflex
ENCODING 206
SWIDTH 122 0
DWIDTH 9 0
BBX 17 62 -4 0
BITMAP
07F000
0FF800
1FFC00
1F7E00
3E3E00
7C1F00
F80F80
000000
000000
000000
000000
000000
000000
03E000
03E000
03E000
03E000
03E000
03E000
03E000
03E000
03E000
03E000
03E000
03E000
03E000
03E000
03E000
03E000
03E000
03E000
03E000
03E000
03E000
03E000
03E000
03E000
03E000
03E000
03E000
03E000
03E000
03E000
03E000
03E000
03E000
03E000
03E000
03E000
03E000
03E000
03E000
03E000
03E000
03E000
03E000
03E000
03E000
03E000
03E000
03E000
03E000
ENDCHAR
STARTCHAR Idieresis
ENCODING 207
SWIDTH 122 0
DWIDTH 9 0
BBX 15 60 -3 0
BITMAP
FC7E
FC7E
FC7E
FC7E
FC7E
0000
0000
0000
0000
0000
0000
07C0
07C0
07C0
07C0
07C0
07C0
07C0
07C0
07C0
07C0
07C0
07C0
07C0
07C0
07C0
07C0
07C0
07C0
07C0
07C0
07C0
07C0
07C0
07C0
07C0
07C0
07C0
07C0
07C0
07C0
07C0
07C0
07C0
07C0
07C0
07C0
07C0
07C0
07C0
07C0
07C0
07C0
07C0
07C0
07C0
07C0
07C0
07C0
07C0
ENDCHAR
STARTCHAR Eth
ENCODING 208
SWIDTH 317 0
DWIDTH 24 0
BBX 22 49 2 0
BITMAP
1FFFC0
1FFFE0
1FFFF0
1FFFF8
1FFFF8
1F81F8
1F80FC
1F80FC
1F80FC
1F80FC
1F80FC
1F80FC
1F80FC
1F80FC
1F80FC
1F80FC
1F80FC
1F80FC
1F80FC
1F80FC
1F80FC
1F80FC
FFF8FC
FFF8FC
FFF8FC
FFF8FC
FFF8FC
1F80FC
1F80FC
1F80FC
1F80FC
1F80FC
1F80FC
1F80FC
1F80FC
1F80FC
1F80FC
1F80FC
1F80FC
1F80FC
1F80FC
1F80FC
1F80F8
1F83F8
1FFFF8
1FFFF8
1FFFF0
1FFFE0
1FFF80
ENDCHAR
STARTCHAR Ntilde
ENCODING 209
SWIDTH 317 0
DWIDTH 24 0
BBX 20 62 2 0
BITMAP
0FC3F0
3FF7F0
7FFFE0
7FFFE0
FFFFC0
FCFF80
F83F00
000000
000000
000000
000000
000000
000000
FE03F0
FE03F0
FE03F0
FE03F0
FF03F0
FF03F0
FF03F0
FF03F0
FF83F0
FF83F0
FF83F0
FF83F0
FF83F0
FFC3F0
FFC3F0
FFC3F0
FFC3F0
FFE3F0
FBE3F0
FBE3F0
FBE3F0
FBF3F0
F9F3F0
F9F3F0
F9F3F0
F9FBF0
F8FBF0
F8FBF0
F8FBF0
F8FFF0
F87FF0
F87FF0
F87FF0
F87FF0
F83FF0
F83FF0
F83FF0
F83FF0
F81FF0
F81FF0
F81FF0
F81FF0
F80FF0
F80FF0
F80FF0
F80FF0
F807F0
F807F0
F807F0
ENDCHAR
STARTCHAR Ograve
ENCODING 210
SWIDTH 292 0
DWIDTH 22 0
BBX 18 65 2 -1
BITMAP
030000
0FC000
3FE000
FFF800
3FFC00
07FF00
00FF80
003FC0
000700
000000
000000
000000
000000
000000
0FFC00
3FFF00
7FFF00
7FFF80
FFFF80
FC0FC0
FC0FC0
F807C0
F807C0
F807C0
F807C0
F807C0
F807C0
F807C0
F807C0
F807C0
F807C0
F807C0
F807C0
F807C0
F807C0
F807C0
F807C0
F807C0
F807C0
F807C0
F807C0
F807C0
F807C0
F807C0
F807C0
F807C0
F807C0
F807C0
F807C0
F807C0
F807C0
F807C0
F807C0
F807C0
F807C0
F807C0
F807C0
F807C0
FC0FC0
FFFFC0
7FFF80
7FFF80
3FFF00
1FFE00
07F800
ENDCHAR
STARTCHAR Oacute
ENCODING 211
SWIDTH 292 0
DWIDTH 22 0
BBX 18 65 2 -1
BITMAP
003000
00FC00
01FF00
07FFC0
0FFF00
3FF800
7FC000
FF0000
380000
000000
000000
000000
000000
000000
0FFC00
3FFF00
7FFF00
7FFF80
FFFF80
FC0FC0
FC0FC0
F807C0
F807C0
F807C0
F807C0
F807C0
F807C0
F807C0
F807C0
F807C0
F807C0
F807C0
F807C0
F807C0
F807C0
F807C0
F807C0
F807C0
F807C0
F807C0
F807C0
F807C0
F807C0
F807C0
F807C0
F807C0
F807C0
F807C0
F807C0
F807C0
F807C0
F807C0
F807C0
F807C0
F807C0
F807C0
F807C0
F807C0
FC0FC0
FFFFC0
7FFF80
7FFF80
3FFF00
1FFE00
07F800
ENDCHAR
STARTCHAR Ocircumflex
ENCODING 212
SWIDTH 292 0
DWIDTH 22 0
BBX 18 63 2 -1
BITMAP
03F000
07F800
0FFC00
1F3E00
3F3F00
7E1F80
FC0FC0
000000
000000
000000
000000
000000
0FFC00
3FFF00
7FFF00
7FFF80
FFFF80
FC0FC0
FC0FC0
F807C0
F807C0
F807C0
F807C0
F807C0
F807C0
F807C0
F807C0
F807C0
F807C0
F807C0
F807C0
F807C0
F807C0
F807C0
F807C0
F807C0
F807C0
F807C0
F807C0
F807C0
F807C0
F807C0
F807C0
F807C0
F807C0
F807C0
F807C0
F807C0
F807C0
F807C0
F807C0
F807C0
F807C0
F807C0
F807C0
F807C0
FC0FC0
FFFFC0
7FFF80
7FFF80
3FFF00
1FFE00
07F800
ENDCHAR
STARTCHAR Otilde
ENCODING 213
SWIDTH 292 0
DWIDTH 22 0
BBX 20 63 1 -1
BITMAP
0FC3F0
3FF7F0
7FFFF0
7FFFE0
FFFFC0
FCFF80
FC3F00
000000
000000
000000
000000
000000
07FE00
1FFF80
3FFF80
3FFFC0
7FFFC0
7E07E0
7E07E0
7C03E0
7C03E0
7C03E0
7C03E0
7C03E0
7C03E0
7C03E0
7C03E0
7C03E0
7C03E0
7C03E0
7C03E0
7C03E0
7C03E0
7C03E0
7C03E0
7C03E0
7C03E0
7C03E0
7C03E0
7C03E0
7C03E0
7C03E0
7C03E0
7C03E0
7C03E0
7C03E0
7C03E0
7C03E0
7C03E0
7C03E0
7C03E0
7C03E0
7C03E0
7C03E0
7C03E0
7C03E0
7E07E0
7FFFE0
3FFFC0
3FFFC0
1FFF80
0FFF00
03FC00
ENDCHAR
STARTCHAR Odieresis
ENCODING 214
SWIDTH 292 0
DWIDTH 22 0
BBX 18 61 2 -1
BITMAP
3E1F00
3E1F00
3E1F00
3E1F00
3E1F00
000000
000000
000000
000000
000000
0FFC00
3FFF00
7FFF00
7FFF80
FFFF80
FC0FC0
FC0FC0
F807C0
F807C0
F807C0
F807C0
F807C0
F807C0
F807C0
F807C0
F807C0
F807C0
F807C0
F807C0
F807C0
F807C0
F807C0
F807C0
F807C0
F807C0
F807C0
F807C0
F807C0
F807C0
F807C0
F807C0
F807C0
F807C0
F807C0
F807C0
F807C0
F807C0
F807C0
F807C0
F807C0
F807C0
F807C0
F807C0
F807C0
FC0FC0
FFFFC0
7FFF80
7FFF80
3FFF00
1FFE00
07F800
ENDCHAR
STARTCHAR multiply
ENCODING 215
SWIDTH 292 0
DWIDTH 22 0
BBX 19 39 2 5
BITMAP
FC07E0
FC07C0
7C0FC0
7E0FC0
7E0F80
3E1F80
3F1F80
3F1F00
1F3F00
1F3F00
1FBE00
0FBE00
0FFC00
0FFC00
07FC00
07F800
07F800
03F800
03F000
03F000
03F000
03F800
07F800
07F800
07FC00
0FFC00
0FBC00
0FBE00
1F3E00
1F3F00
1F1F00
3E1F00
3E1F80
7E0F80
7E0F80
7C0FC0
FC0FC0
FC07C0
F807E0
ENDCHAR
STARTCHAR Oslash
ENCODING 216
SWIDTH 292 0
DWIDTH 22 0
BBX 18 51 2 -1
BITMAP
0FFC00
3FFFC0
7FFFC0
7FFF80
FFFF80
FC1FC0
FC1FC0
F81FC0
F81FC0
F83FC0
F83FC0
F83FC0
F83FC0
F87FC0
F87FC0
F87FC0
F87FC0
F8FFC0
F8FFC0
F8FFC0
F9FFC0
F9FFC0
F9F7C0
F9F7C0
FBF7C0
FBF7C0
FBE7C0
FBE7C0
FFE7C0
FFE7C0
FFC7C0
FFC7C0
FFC7C0
FFC7C0
FF87C0
FF87C0
FF87C0
FF87C0
FF07C0
FF07C0
FF07C0
FF07C0
FE07C0
FE07C0
FE0FC0
FFFFC0
7FFF80
FFFF80
FFFF00
FFFE00
07F800
ENDCHAR
STARTCHAR Ugrave
ENCODING 217
SWIDTH 292 0
DWIDTH 22 0
BBX 18 65 2 -1
BITMAP
030000
0FC000
3FE000
FFF800
3FFC00
07FF00
00FF80
003FC0
000700
000000
000000
000000
000000
000000
000000
F807C0
F807C0
F807C0
F807C0
F807C0
F807C0
F807C0
F807C0
F807C0
F807C0
F807C0
F807C0
F807C0
F807C0
F807C0
F807C0
F807C0
F807C0
F807C0
F807C0
F807C0
F807C0
F807C0
F807C0
F807C0
F807C0
F807C0
F807C0
F807C0
F807C0
F807C0
F807C0
F807C0
F807C0
F807C0
F807C0
F807C0
F807C0
F807C0
F807C0
F807C0
F807C0
F807C0
FC0FC0
FFFFC0
7FFF80
7FFF80
3FFF00
1FFE00
07F800
ENDCHAR
STARTCHAR Uacute
ENCODING 218
SWIDTH 292 0
DWIDTH 22 0
BBX 18 65 2 -1
BITMAP
003000
00FC00
01FF00
07FFC0
0FFF00
3FF800
7FC000
FF0000
380000
000000
000000
000000
000000
000000
000000
F807C0
F807C0
F807C0
F807C0
F807C0
F807C0
F807C0
F807C0
F807C0
F807C0
F807C0
F807C0
F807C0
F807C0
F807C0
F807C0
F807C0
F807C0
F807C0
F807C0
F807C0
F807C0
F807C0
F807C0
F807C0
F807C0
F807C0
F807C0
F807C0
F807C0
F807C0
F807C0
F807C0
F807C0
F807C0
F807C0
F807C0
F807C0
F807C0
F807C0
F807C0
F807C0
F807C0
FC0FC0
FFFFC0
7FFF80
7FFF80
3FFF00
1FFE00
07F800
ENDCHAR
STARTCHAR Ucircumflex
ENCODING 219
SWIDTH 292 0
DWIDTH 22 0
BBX 18 63 2 -1
BITMAP
03F000
07F800
0FFC00
1F3E00
3F3F00
7E1F80
FC0FC0
000000
000000
000000
000000
000000
000000
F807C0
F807C0
F807C0
F807C0
F807C0
F807C0
F807C0
F807C0
F807C0
F807C0
F807C0
F807C0
F807C0
F807C0
F807C0
F807C0
F807C0
F807C0
F807C0
F807C0
F807C0
F807C0
F807C0
F807C0
F807C0
F807C0
F807C0
F807C0
F807C0
F807C0
F807C0
F807C0
F807C0
F807C0
F807C0
F807C0
F807C0
F807C0
F807C0
F807C0
F807C0
F807C0
F807C0
FC0FC0
FFFFC0
7FFF80
7FFF80
3FFF00
1FFE00
07F800
ENDCHAR
STARTCHAR Udieresis
ENCODING 220
SWIDTH 292 0
DWIDTH 22 0
BBX 18 61 2 -1
BITMAP
3E1F00
3E1F00
3E1F00
3E1F00
3E1F00
000000
000000
000000
000000
000000
000000
F807C0
F807C0
F807C0
F807C0
F807C0
F807C0
F807C0
F807C0
F807C0
F807C0
F807C0
F807C0
F807C0
F807C0
F807C0
F807C0
F807C0
F807C0
F807C0
F807C0
F807C0
F807C0
F807C0
F807C0
F807C0
F807C0
F807C0
F807C0
F807C0
F807C0
F807C0
F807C0
F807C0
F807C0
F807C0
F807C0
F807C0
F807C0
F807C0
F807C0
F807C0
F807C0
F807C0
FC0FC0
FFFFC0
7FFF80
7FFF80
3FFF00
1FFE00
07F800
ENDCHAR
STARTCHAR Yacute
ENCODING 221
SWIDTH 292 0
DWIDTH 22 0
BBX 20 64 1 0
BITMAP
001800
007E00
00FF80
03FFE0
07FF80
1FFC00
3FE000
7F8000
1C0000
000000
000000
000000
000000
000000
000000
FE07F0
FE07F0
7E07E0
7E07E0
7F0FE0
3F0FC0
3F0FC0
3F9FC0
3F9FC0
1F9F80
1F9F80
1FFF80
0FFF00
0FFF00
0FFF00
0FFF00
07FE00
07FE00
07FE00
07FE00
03FC00
03FC00
03FC00
01F800
01F800
01F800
01F800
01F800
01F800
01F800
01F800
01F800
01F800
01F800
01F800
01F800
01F800
01F800
01F800
01F800
01F800
01F800
01F800
01F800
01F800
01F800
01F800
01F800
01F800
ENDCHAR
STARTCHAR Thorn
ENCODING 222
SWIDTH 292 0
DWIDTH 22 0
BBX 18 49 2 0
BITMAP
F80000
F80000
F80000
F80000
F80000
F80000
F80000
F80000
F80000
FFFC00
FFFF00
FFFF00
FFFF80
FFFF80
F81FC0
F80FC0
F807C0
F807C0
F807C0
F807C0
F807C0
F807C0
F807C0
F807C0
F807C0
F807C0
F807C0
F807C0
F807C0
F807C0
F807C0
F807C0
F807C0
F80FC0
FFFFC0
FFFF80
FFFF80
FFFF00
FFFE00
FFF800
F80000
F80000
F80000
F80000
F80000
F80000
F80000
F80000
F80000
ENDCHAR
STARTCHAR germandbls
ENCODING 223
SWIDTH 292 0
DWIDTH 22 0
BBX 18 51 2 -1
BITMAP
0FFC00
3FFF00
7FFF00
7FFF80
FFFF80
FC0FC0
FC0FC0
F807C0
F807C0
F807C0
F807C0
F807C0
F807C0
F807C0
F807C0
F807C0
F807C0
F807C0
F807C0
F807C0
F80FC0
F81F80
F9FF80
F9FF00
F9FE00
F9FF00
F9FF80
F80FC0
F80FC0
F807C0
F807C0
F807C0
F807C0
F807C0
F807C0
F807C0
F807C0
F807C0
F807C0
F807C0
F807C0
F807C0
F807C0
F807C0
F80FC0
F9FFC0
F9FF80
F9FF80
F9FF00
F9FE00
01F800
ENDCHAR
STARTCHAR agrave
ENCODING 224
SWIDTH 268 0
DWIDTH 20 0
BBX 18 54 1 -1
BITMAP
030000
0FC000
3FE000
FFF800
3FFC00
07FF00
00FF80
003FC0
000700
000000
000000
000000
000000
000000
0FFC00
1FFE00
3FFF00
3FFF00
7FFF80
7E1F80
7E0F80
7C0F80
7C0F80
7C0F80
7C0F80
7C0F80
000F80
001F80
003F80
03FF80
0FFF80
1FFF80
3FFF80
3FFF80
7FEF80
7F8F80
7E0F80
7C0F80
7C0F80
7C0F80
7C0F80
7C0F80
7C0F80
7C0F80
7C0F80
7C0F80
7C0F80
7E1F80
7FFF80
3FFF80
3FFF80
1FFF80
0FEF80
03C000
ENDCHAR
STARTCHAR aacute
ENCODING 225
SWIDTH 268 0
DWIDTH 20 0
BBX 18 54 1 -1
BITMAP
003000
00FC00
01FF00
07FFC0
0FFF00
3FF800
7FC000
FF0000
380000
000000
000000
000000
000000
000000
0FFC00
1FFE00
3FFF00
3FFF00
7FFF80
7E1F80
7E0F80
7C0F80
7C0F80
7C0F80
7C0F80
7C0F80
000F80
001F80
003F80
03FF80
0FFF80
1FFF80
3FFF80
3FFF80
7FEF80
7F8F80
7E0F80
7C0F80
7C0F80
7C0F80
7C0F80
7C0F80
7C0F80
7C0F80
7C0F80
7C0F80
7C0F80
7E1F80
7FFF80
3FFF80
3FFF80
1FFF80
0FEF80
03C000
ENDCHAR
STARTCHAR acircumflex
ENCODING 226
SWIDTH 268 0
DWIDTH 20 0
BBX 18 52 1 -1
BITMAP
03F000
07F800
0FFC00
1FBE00
3F3F00
7E1F80
FC0FC0
000000
000000
000000
000000
000000
0FFC00
1FFE00
3FFF00
3FFF00
7FFF80
7E1F80
7E0F80
7C0F80
7C0F80
7C0F80
7C0F80
7C0F80
000F80
001F80
003F80
03FF80
0FFF80
1FFF80
3FFF80
3FFF80
7FEF80
7F8F80
7E0F80
7C0F80
7C0F80
7C0F80
7C0F80
7C0F80
7C0F80
7C0F80
7C0F80
7C0F80
7C0F80
7E1F80
7FFF80
3FFF80
3FFF80
1FFF80
0FEF80
03C000
ENDCHAR
STARTCHAR atilde
ENCODING 227
SWIDTH 268 0
DWIDTH 20 0
BBX 20 52 0 -1
BITMAP
0FC3F0
1FFFF0
3FFFF0
7FFFE0
FFFFC0
FCFF80
FC3F00
000000
000000
000000
000000
000000
07FE00
0FFF00
1FFF80
1FFF80
3FFFC0
3F0FC0
3F07C0
3E07C0
3E07C0
3E07C0
3E07C0
3E07C0
0007C0
000FC0
001FC0
01FFC0
07FFC0
0FFFC0
1FFFC0
1FFFC0
3FF7C0
3FC7C0
3F07C0
3E07C0
3E07C0
3E07C0
3E07C0
3E07C0
3E07C0
3E07C0
3E07C0
3E07C0
3E07C0
3F0FC0
3FFFC0
1FFFC0
1FFFC0
0FFFC0
07F7C0
01E000
ENDCHAR
STARTCHAR adieresis
ENCODING 228
SWIDTH 268 0
DWIDTH 20 0
BBX 16 50 2 -1
BITMAP
7C3E
7C3E
7C3E
7C3E
7C3E
0000
0000
0000
0000
0000
1FF8
3FFC
7FFE
7FFE
FFFF
FC3F
FC1F
F81F
F81F
F81F
F81F
F81F
001F
003F
007F
07FF
1FFF
3FFF
7FFF
7FFF
FFDF
FF1F
FC1F
F81F
F81F
F81F
F81F
F81F
F81F
F81F
F81F
F81F
F81F
FC3F
FFFF
7FFF
7FFF
3FFF
1FDF
0780
ENDCHAR
STARTCHAR aring
ENCODING 229
SWIDTH 268 0
DWIDTH 20 0
BBX 16 56 2 -1
BITMAP
03C0
0FF0
1FF8
3FFC
3FFC
3FFC
3E7C
3FFC
3FFC
3FFC
1FF8
0FF0
03C0
0000
0000
0000
1FF8
3FFC
7FFE
7FFE
FFFF
FC3F
FC1F
F81F
F81F
F81F
F81F
F81F
001F
003F
007F
07FF
1FFF
3FFF
7FFF
7FFF
FFDF
FF1F
FC1F
F81F
F81F
F81F
F81F
F81F
F81F
F81F
F81F
F81F
F81F
FC3F
FFFF
7FFF
7FFF
3FFF
1FDF
0780
ENDCHAR
STARTCHAR ae
ENCODING 230
SWIDTH 402 0
DWIDTH 30 0
BBX 27 40 2 -1
BITMAP
1FFBFF00
3FFFFF80
7FFFFFC0
7FFFFFC0
FFFFFFE0
FC3F87E0
FC1F83E0
F81F03E0
F81F03E0
F81F03E0
F81F03E0
F81F03E0
001F03E0
003F03E0
007F03E0
07FF03E0
1FFF03E0
3FFFFFE0
7FFFFFE0
7FFFFFE0
FFDFFFE0
FF1FFFE0
FC1FFFE0
F81F0000
F81F0000
F81F0000
F81F03E0
F81F03E0
F81F03E0
F81F03E0
F81F03E0
F81F03E0
F81F03E0
FC3F87E0
FFFFFFE0
7FFFFFC0
7FFFFFC0
3FFFFF80
1FDFFF00
0781FE00
ENDCHAR
STARTCHAR ccedilla
ENCODING 231
SWIDTH 268 0
DWIDTH 20 0
BBX 18 53 1 -14
BITMAP
0FFC00
1FFE00
3FFF00
3FFF00
7FFF80
7E1F80
7E0F80
7C0F80
7C0F80
7C0F80
7C0F80
7C0F80
7C0F80
7C0000
7C0000
7C0000
7C0000
7C0000
7C0000
7C0000
7C0000
7C0000
7C0000
7C0000
7C0000
7C0000
7C0F80
7C0F80
7C0F80
7C0F80
7C0F80
7C0F80
7C0F80
7E1F80
7FFF80
3FFF00
3FFF00
1FFF00
0FFF80
03FF80
001FC0
000FC0
0007C0
0007C0
FC07C0
FC0FC0
FE1FC0
7FFF80
7FFF80
3FFF00
1FFE00
0FFC00
01E000
ENDCHAR
STARTCHAR egrave
ENCODING 232
SWIDTH 268 0
DWIDTH 20 0
BBX 18 54 1 -1
BITMAP
030000
0FC000
3FE000
FFF800
3FFC00
07FF00
00FF80
003FC0
000700
000000
000000
000000
000000
000000
0FFC00
1FFE00
3FFF00
3FFF00
7FFF80
7E1F80
7E0F80
7C0F80
7C0F80
7C0F80
7C0F80
7C0F80
7C0F80
7C0F80
7C0F80
7C0F80
7C0F80
7FFF80
7FFF80
7FFF80
7FFF80
7FFF80
7FFF80
7C0000
7C0000
7C0000
7C0F80
7C0F80
7C0F80
7C0F80
7C0F80
7C0F80
7C0F80
7E1F80
7FFF80
3FFF00
3FFF00
1FFE00
0FFC00
03F800
ENDCHAR
STARTCHAR eacute
ENCODING 233
SWIDTH 268 0
DWIDTH 20 0
BBX 18 54 1 -1
BITMAP
003000
00FC00
01FF00
07FFC0
0FFF00
3FF800
7FC000
FF0000
380000
000000
000000
000000
000000
000000
0FFC00
1FFE00
3FFF00
3FFF00
7FFF80
7E1F80
7E0F80
7C0F80
7C0F80
7C0F80
7C0F80
7C0F80
7C0F80
7C0F80
7C0F80
7C0F80
7C0F80
7FFF80
7FFF80
7FFF80
7FFF80
7FFF80
7FFF80
7C0000
7C0000
7C0000
7C0F80
7C0F80
7C0F80
7C0F80
7C0F80
7C0F80
7C0F80
7E1F80
7FFF80
3FFF00
3FFF00
1FFE00
0FFC00
03F800
ENDCHAR
STARTCHAR ecircumflex
ENCODING 234
SWIDTH 268 0
DWIDTH 20 0
BBX 18 52 1 -1
BITMAP
03F000
07F800
0FFC00
1FBE00
3F3F00
7E1F80
FC0FC0
000000
000000
000000
000000
000000
0FFC00
1FFE00
3FFF00
3FFF00
7FFF80
7E1F80
7E0F80
7C0F80
7C0F80
7C0F80
7C0F80
7C0F80
7C0F80
7C0F80
7C0F80
7C0F80
7C0F80
7FFF80
7FFF80
7FFF80
7FFF80
7FFF80
7FFF80
7C0000
7C0000
7C0000
7C0F80
7C0F80
7C0F80
7C0F80
7C0F80
7C0F80
7C0F80
7E1F80
7FFF80
3FFF00
3FFF00
1FFE00
0FFC00
03F800
ENDCHAR
STARTCHAR edieresis
ENCODING 235
SWIDTH 268 0
DWIDTH 20 0
BBX 16 50 2 -1
BITMAP
7C3E
7C3E
7C3E
7C3E
7C3E
0000
0000
0000
0000
0000
1FF8
3FFC
7FFE
7FFE
FFFF
FC3F
FC1F
F81F
F81F
F81F
F81F
F81F
F81F
F81F
F81F
F81F
F81F
FFFF
FFFF
FFFF
FFFF
FFFF
FFFF
F800
F800
F800
F81F
F81F
F81F
F81F
F81F
F81F
F81F
FC3F
FFFF
7FFE
7FFE
3FFC
1FF8
07F0
ENDCHAR
STARTCHAR igrave
ENCODING 236
SWIDTH 122 0
DWIDTH 9 0
BBX 17 53 -4 0
BITMAP
030000
0F8000
3FE000
FFF000
3FFC00
07FE00
01FF80
003F80
000600
000000
000000
000000
000000
000000
000000
03E000
03E000
03E000
03E000
03E000
03E000
03E000
03E000
03E000
03E000
03E000
03E000
03E000
03E000
03E000
03E000
03E000
03E000
03E000
03E000
03E000
03E000
03E000
03E000
03E000
03E000
03E000
03E000
03E000
03E000
03E000
03E000
03E000
03E000
03E000
03E000
03E000
03E000
ENDCHAR
STARTCHAR iacute
ENCODING 237
SWIDTH 122 0
DWIDTH 9 0
BBX 18 53 -4 0
BITMAP
007000
00FC00
03FF00
07FFC0
1FFE00
3FF800
FFC000
FE0000
380000
000000
000000
000000
000000
000000
000000
03E000
03E000
03E000
03E000
03E000
03E000
03E000
03E000
03E000
03E000
03E000
03E000
03E000
03E000
03E000
03E000
03E000
03E000
03E000
03E000
03E000
03E000
03E000
03E000
03E000
03E000
03E000
03E000
03E000
03E000
03E000
03E000
03E000
03E000
03E000
03E000
03E000
03E000
ENDCHAR
STARTCHAR icircumflex
ENCODING 238
SWIDTH 117 0
DWIDTH 9 0
BBX 17 51 -4 0
BITMAP
07F000
0FF800
1FFC00
1F7E00
3E3F00
7C1F00
F80F80
000000
000000
000000
000000
000000
000000
03E000
03E000
03E000
03E000
03E000
03E000
03E000
03E000
03E000
03E000
03E000
03E000
03E000
03E000
03E000
03E000
03E000
03E000
03E000
03E000
03E000
03E000
03E000
03E000
03E000
03E000
03E000
03E000
03E000
03E000
03E000
03E000
03E000
03E000
03E000
03E000
03E000
03E000
ENDCHAR
STARTCHAR idieresis
ENCODING 239
SWIDTH 117 0
DWIDTH 9 0
BBX 15 49 -3 0
BITMAP
FC7E
FC7E
FC7E
FC7E
FC7E
0000
0000
0000
0000
0000
0000
07C0
07C0
07C0
07C0
07C0
07C0
07C0
07C0
07C0
07C0
07C0
07C0
07C0
07C0
07C0
07C0
07C0
07C0
07C0
07C0
07C0
07C0
07C0
07C0
07C0
07C0
07C0
07C0
07C0
07C0
07C0
07C0
07C0
07C0
07C0
07C0
07C0
07C0
ENDCHAR
STARTCHAR eth
ENCODING 240
SWIDTH 317 0
DWIDTH 24 0
BBX 20 50 2 -1
BITMAP
00F800
00FC00
00FE00
00FE00
00FF00
003F00
001F00
001F00
001F00
001F00
001F00
1FFFF0
3FFFF0
7FFFF0
7FFFF0
FFFFF0
FC1F00
FC1F00
F81F00
F81F00
F81F00
F81F00
F81F00
F81F00
F81F00
F81F00
F81F00
F81F00
F81F00
F81F00
F81F00
F81F00
F81F00
F81F00
F81F00
F81F00
F81F00
F81F00
F81F00
F81F00
F81F00
F81F00
F81F00
FC3F00
FFFF00
7FFF00
7FFF00
3FFF00
1FDF00
078000
ENDCHAR
STARTCHAR ntilde
ENCODING 241
SWIDTH 268 0
DWIDTH 20 0
BBX 20 51 0 0
BITMAP
0FC3F0
1FFFF0
3FFFF0
7FFFE0
FFFFC0
FCFF80
FC3F00
000000
000000
000000
000000
000000
00FE00
3EFF00
3FFF80
3FFF80
3FFFC0
3F0FC0
3F07C0
3E07C0
3E07C0
3E07C0
3E07C0
3E07C0
3E07C0
3E07C0
3E07C0
3E07C0
3E07C0
3E07C0
3E07C0
3E07C0
3E07C0
3E07C0
3E07C0
3E07C0
3E07C0
3E07C0
3E07C0
3E07C0
3E07C0
3E07C0
3E07C0
3E07C0
3E07C0
3E07C0
3E07C0
3E07C0
3E07C0
3E07C0
3E07C0
ENDCHAR
STARTCHAR ograve
ENCODING 242
SWIDTH 268 0
DWIDTH 20 0
BBX 18 54 1 -1
BITMAP
030000
0FC000
3FE000
FFF800
3FFC00
07FF00
00FF80
003FC0
000700
000000
000000
000000
000000
000000
0FFC00
1FFE00
3FFF00
3FFF00
7FFF80
7E1F80
7E0F80
7C0F80
7C0F80
7C0F80
7C0F80
7C0F80
7C0F80
7C0F80
7C0F80
7C0F80
7C0F80
7C0F80
7C0F80
7C0F80
7C0F80
7C0F80
7C0F80
7C0F80
7C0F80
7C0F80
7C0F80
7C0F80
7C0F80
7C0F80
7C0F80
7C0F80
7C0F80
7E1F80
7FFF80
3FFF00
3FFF00
1FFE00
0FFC00
03F800
ENDCHAR
STARTCHAR oacute
ENCODING 243
SWIDTH 268 0
DWIDTH 20 0
BBX 18 54 1 -1
BITMAP
003000
00FC00
01FF00
07FFC0
0FFF00
3FF800
7FC000
FF0000
380000
000000
000000
000000
000000
000000
0FFC00
1FFE00
3FFF00
3FFF00
7FFF80
7E1F80
7E0F80
7C0F80
7C0F80
7C0F80
7C0F80
7C0F80
7C0F80
7C0F80
7C0F80
7C0F80
7C0F80
7C0F80
7C0F80
7C0F80
7C0F80
7C0F80
7C0F80
7C0F80
7C0F80
7C0F80
7C0F80
7C0F80
7C0F80
7C0F80
7C0F80
7C0F80
7C0F80
7E1F80
7FFF80
3FFF00
3FFF00
1FFE00
0FFC00
03F800
ENDCHAR
STARTCHAR ocircumflex
ENCODING 244
SWIDTH 268 0
DWIDTH 20 0
BBX 18 52 1 -1
BITMAP
03F000
07F800
0FFC00
1FBE00
3F3F00
7E1F80
FC0FC0
000000
000000
000000
000000
000000
0FFC00
1FFE00
3FFF00
3FFF00
7FFF80
7E1F80
7E0F80
7C0F80
7C0F80
7C0F80
7C0F80
7C0F80
7C0F80
7C0F80
7C0F80
7C0F80
7C0F80
7C0F80
7C0F80
7C0F80
7C0F80
7C0F80
7C0F80
7C0F80
7C0F80
7C0F80
7C0F80
7C0F80
7C0F80
7C0F80
7C0F80
7C0F80
7C0F80
7E1F80
7FFF80
3FFF00
3FFF00
1FFE00
0FFC00
03F800
ENDCHAR
STARTCHAR otilde
ENCODING 245
SWIDTH 268 0
DWIDTH 20 0
BBX 20 52 0 -1
BITMAP
0FC3F0
1FFFF0
3FFFF0
7FFFE0
FFFFC0
FCFF80
FC3F00
000000
000000
000000
000000
000000
07FE00
0FFF00
1FFF80
1FFF80
3FFFC0
3F0FC0
3F07C0
3E07C0
3E07C0
3E07C0
3E07C0
3E07C0
3E07C0
3E07C0
3E07C0
3E07C0
3E07C0
3E07C0
3E07C0
3E07C0
3E07C0
3E07C0
3E07C0
3E07C0
3E07C0
3E07C0
3E07C0
3E07C0
3E07C0
3E07C0
3E07C0
3E07C0
3E07C0
3F0FC0
3FFFC0
1FFF80
1FFF80
0FFF00
07FE00
01FC00
ENDCHAR
STARTCHAR odieresis
ENCODING 246
SWIDTH 268 0
DWIDTH 20 0
BBX 16 50 2 -1
BITMAP
7C3E
7C3E
7C3E
7C3E
7C3E
0000
0000
0000
0000
0000
1FF8
3FFC
7FFE
7FFE
FFFF
FC3F
FC1F
F81F
F81F
F81F
F81F
F81F
F81F
F81F
F81F
F81F
F81F
F81F
F81F
F81F
F81F
F81F
F81F
F81F
F81F
F81F
F81F
F81F
F81F
F81F
F81F
F81F
F81F
FC3F
FFFF
7FFE
7FFE
3FFC
1FF8
07F0
ENDCHAR
STARTCHAR divide
ENCODING 247
SWIDTH 268 0
DWIDTH 20 0
BBX 16 27 2 11
BITMAP
07E0
07E0
07E0
07E0
07E0
0000
0000
0000
0000
0000
0000
FFFF
FFFF
FFFF
FFFF
FFFF
0000
0000
0000
0000
0000
0000
07E0
07E0
07E0
07E0
07E0
ENDCHAR
STARTCHAR oslash
ENCODING 248
SWIDTH 268 0
DWIDTH 20 0
BBX 16 40 2 -1
BITMAP
1FF8
3FFF
7FFF
7FFE
FFFF
FC7F
FC7F
F87F
F87F
F8FF
F8FF
F8FF
F9FF
F9FF
F9FF
F9FF
FBFF
FBFF
FBFF
FFFF
FFFF
FFDF
FFDF
FFDF
FF9F
FF9F
FF9F
FF9F
FF1F
FF1F
FF1F
FF1F
FE1F
FE3F
FFFF
7FFE
7FFE
FFFC
FFF8
07F0
ENDCHAR
STARTCHAR ugrave
ENCODING 249
SWIDTH 268 0
DWIDTH 20 0
BBX 18 54 1 -1
BITMAP
030000
0FC000
3FE000
FFF800
3FFC00
07FF00
00FF80
003FC0
000700
000000
000000
000000
000000
000000
000000
7C0F80
7C0F80
7C0F80
7C0F80
7C0F80
7C0F80
7C0F80
7C0F80
7C0F80
7C0F80
7C0F80
7C0F80
7C0F80
7C0F80
7C0F80
7C0F80
7C0F80
7C0F80
7C0F80
7C0F80
7C0F80
7C0F80
7C0F80
7C0F80
7C0F80
7C0F80
7C0F80
7C0F80
7C0F80
7C0F80
7C0F80
7C0F80
7E1F80
7FFF80
3FFF80
3FFF80
1FFF80
0FEF80
03C000
ENDCHAR
STARTCHAR uacute
ENCODING 250
SWIDTH 268 0
DWIDTH 20 0
BBX 18 54 1 -1
BITMAP
003000
00FC00
01FF00
07FFC0
0FFF00
3FF800
7FC000
FF0000
380000
000000
000000
000000
000000
000000
000000
7C0F80
7C0F80
7C0F80
7C0F80
7C0F80
7C0F80
7C0F80
7C0F80
7C0F80
7C0F80
7C0F80
7C0F80
7C0F80
7C0F80
7C0F80
7C0F80
7C0F80
7C0F80
7C0F80
7C0F80
7C0F80
7C0F80
7C0F80
7C0F80
7C0F80
7C0F80
7C0F80
7C0F80
7C0F80
7C0F80
7C0F80
7C0F80
7E1F80
7FFF80
3FFF80
3FFF80
1FFF80
0FEF80
03C000
ENDCHAR
STARTCHAR ucircumflex
ENCODING 251
SWIDTH 268 0
DWIDTH 20 0
BBX 18 52 1 -1
BITMAP
03F000
07F800
0FFC00
1FBE00
3F3F00
7E1F80
FC0FC0
000000
000000
000000
000000
000000
000000
7C0F80
7C0F80
7C0F80
7C0F80
7C0F80
7C0F80
7C0F80
7C0F80
7C0F80
7C0F80
7C0F80
7C0F80
7C0F80
7C0F80
7C0F80
7C0F80
7C0F80
7C0F80
7C0F80
7C0F80
7C0F80
7C0F80
7C0F80
7C0F80
7C0F80
7C0F80
7C0F80
7C0F80
7C0F80
7C0F80
7C0F80
7C0F80
7E1F80
7FFF80
3FFF80
3FFF80
1FFF80
0FEF80
03C000
ENDCHAR
STARTCHAR udieresis
ENCODING 252
SWIDTH 268 0
DWIDTH 20 0
BBX 16 50 2 -1
BITMAP
7C3E
7C3E
7C3E
7C3E
7C3E
0000
0000
0000
0000
0000
0000
F81F
F81F
F81F
F81F
F81F
F81F
F81F
F81F
F81F
F81F
F81F
F81F
F81F
F81F
F81F
F81F
F81F
F81F
F81F
F81F
F81F
F81F
F81F
F81F
F81F
F81F
F81F
F81F
F81F
F81F
F81F
F81F
FC3F
FFFF
7FFF
7FFF
3FFF
1FDF
0780
ENDCHAR
STARTCHAR yacute
ENCODING 253
SWIDTH 292 0
DWIDTH 22 0
BBX 20 64 1 -11
BITMAP
003000
00FC00
01FF00
07FFC0
0FFF00
3FF800
7FC000
FF0000
380000
000000
000000
000000
000000
000000
000000
7E03F0
7E03E0
7E03E0
3E07E0
3E07E0
3E07E0
3F07E0
3F07C0
3F07C0
1F07C0
1F0FC0
1F0FC0
1F8F80
1F8F80
1F8F80
0F8F80
0F9F80
0F9F80
0FDF00
0FDF00
0FDF00
07DF00
07DF00
07FF00
07FE00
07FE00
07FE00
03FE00
03FE00
03FC00
03FC00
03FC00
03FC00
01FC00
01FC00
01F800
01F800
01F800
01F800
01F800
01F800
01F000
01F000
07F000
7FF000
7FF000
7FE000
7FE000
7F8000
ENDCHAR
STARTCHAR thorn
ENCODING 254
SWIDTH 268 0
DWIDTH 20 0
BBX 16 60 2 -11
BITMAP
F800
F800
F800
F800
F800
F800
F800
F800
F800
F800
FBF8
FBFC
FFFE
FFFE
FFFF
FC3F
FC1F
F81F
F81F
F81F
F81F
F81F
F81F
F81F
F81F
F81F
F81F
F81F
F81F
F81F
F81F
F81F
F81F
F81F
F81F
F81F
F81F
F81F
F81F
F81F
F81F
F81F
F81F
FC3F
FFFF
FFFE
FFFE
FFFC
FBF8
F9F0
F800
F800
F800
F800
F800
F800
F800
F800
F800
F800
ENDCHAR
STARTCHAR ydieresis
ENCODING 255
SWIDTH 292 0
DWIDTH 22 0
BBX 19 60 2 -11
BITMAP
3E1F00
3E1F00
3E1F00
3E1F00
3E1F00
000000
000000
000000
000000
000000
000000
FC07E0
FC07C0
FC07C0
7C0FC0
7C0FC0
7C0FC0
7E0FC0
7E0F80
7E0F80
3E0F80
3E1F80
3E1F80
3F1F00
3F1F00
3F1F00
1F1F00
1F3F00
1F3F00
1FBE00
1FBE00
1FBE00
0FBE00
0FBE00
0FFE00
0FFC00
0FFC00
0FFC00
07FC00
07FC00
07F800
07F800
07F800
07F800
03F800
03F800
03F000
03F000
03F000
03F000
03F000
03F000
03E000
03E000
0FE000
FFE000
FFE000
FFC000
FFC000
FF0000
ENDCHAR
STARTCHAR dotlessi
ENCODING 305
SWIDTH 122 0
DWIDTH 9 0
BBX 5 38 2 0
BITMAP
F8
F8
F8
F8
F8
F8
F8
F8
F8
F8
F8
F8
F8
F8
F8
F8
F8
F8
F8
F8
F8
F8
F8
F8
F8
F8
F8
F8
F8
F8
F8
F8
F8
F8
F8
F8
F8
F8
ENDCHAR
STARTCHAR OE
ENCODING 338
SWIDTH 463 0
DWIDTH 35 0
BBX 31 51 2 -1
BITMAP
0FFC0000
3FFFFFFE
7FFFFFFE
7FFFFFFE
FFFFFFFE
FC0FFFFE
FC0FC000
F807C000
F807C000
F807C000
F807C000
F807C000
F807C000
F807C000
F807C000
F807C000
F807C000
F807C000
F807C000
F807C000
F807C000
F807C000
F807C000
F807FFE0
F807FFE0
F807FFE0
F807FFE0
F807FFE0
F807C000
F807C000
F807C000
F807C000
F807C000
F807C000
F807C000
F807C000
F807C000
F807C000
F807C000
F807C000
F807C000
F807C000
F807C000
F807C000
FC0FFFFE
FFFFFFFE
7FFFFFFE
7FFFFFFE
3FFFFFFE
1FFFFFFE
07F80000
ENDCHAR
STARTCHAR oe
ENCODING 339
SWIDTH 415 0
DWIDTH 31 0
BBX 27 40 2 -1
BITMAP
1FFBFF00
3FFFFF80
7FFFFFC0
7FFFFFC0
FFFFFFE0
FC3F87E0
FC1F83E0
F81F03E0
F81F03E0
F81F03E0
F81F03E0
F81F03E0
F81F03E0
F81F03E0
F81F03E0
F81F03E0
F81F03E0
F81FFFE0
F81FFFE0
F81FFFE0
F81FFFE0
F81FFFE0
F81FFFE0
F81F0000
F81F0000
F81F0000
F81F03E0
F81F03E0
F81F03E0
F81F03E0
F81F03E0
F81F03E0
F81F03E0
FC3F87E0
FFFFFFE0
7FFFFFC0
7FFFFFC0
3FFFFF80
1FFBFF00
07F1FE00
ENDCHAR
STARTCHAR circumflex
ENCODING 710
SWIDTH 292 0
DWIDTH 22 0
BBX 18 7 2 55
BITMAP
03F000
07F800
0FFC00
1F3E00
3F3F00
7E1F80
FC0FC0
ENDCHAR
STARTCHAR caron
ENCODING 711
SWIDTH 292 0
DWIDTH 22 0
BBX 17 7 2 55
BITMAP
FC0F80
7E1F80
3F3F00
1FFE00
0FFC00
07F800
03F000
ENDCHAR
STARTCHAR uni02C9
ENCODING 713
SWIDTH 500 0
DWIDTH 38 0
BBX 19 4 11 44
BITMAP
FFFFE0
FFFFE0
FFFFE0
FFFFE0
ENDCHAR
STARTCHAR breve
ENCODING 728
SWIDTH 500 0
DWIDTH 38 0
BBX 21 9 10 40
BITMAP
C00018
C00018
600038
700070
7F03F0
3FFFE0
1FFFC0
0FFF80
03FE00
ENDCHAR
STARTCHAR dotaccent
ENCODING 729
SWIDTH 500 0
DWIDTH 38 0
BBX 8 8 17 42
BITMAP
38
3C
7E
FF
FE
7E
3C
18
ENDCHAR
STARTCHAR ring
ENCODING 730
SWIDTH 219 0
DWIDTH 16 0
BBX 13 13 2 53
BITMAP
0F00
3FC0
7FE0
7FF0
FFF0
FFF8
F9F8
FFF8
FFF0
7FF0
7FE0
3FC0
0F00
ENDCHAR
STARTCHAR ogonek
ENCODING 731
SWIDTH 292 0
DWIDTH 22 0
BBX 18 18 2 -13
BITMAP
078000
1F8000
3F8000
7F8000
7F8000
FE0000
FC0000
FC0000
F80000
F807C0
FC0FC0
FE1FC0
7FFF80
7FFF80
3FFF00
1FFE00
0FFC00
01E000
ENDCHAR
STARTCHAR tilde
ENCODING 732
SWIDTH 317 0
DWIDTH 24 0
BBX 20 7 2 55
BITMAP
0FC3F0
3FF7F0
7FFFE0
7FFFE0
FFFFC0
FCFF80
F83F00
ENDCHAR
STARTCHAR hungarumlaut
ENCODING 733
SWIDTH 500 0
DWIDTH 38 0
BBX 21 13 10 40
BITMAP
008000
03C078
03E0F8
07E1F8
0FC1F8
0FC3F0
1F83E0
1F07C0
3E0780
3C0F00
780E00
701C00
E01800
ENDCHAR
STARTCHAR semicolon.dup4
ENCODING 894
SWIDTH 146 0
DWIDTH 11 0
BBX 8 32 2 -3
BITMAP
3F
3F
3F
3F
3F
3F
00
00
00
00
00
00
00
00
00
00
00
00
00
00
00
00
00
3F
3E
3E
7C
7C
7C
78
F8
F8
ENDCHAR
STARTCHAR endash
ENCODING 8211
SWIDTH 268 0
DWIDTH 20 0
BBX 16 5 2 22
BITMAP
FFFF
FFFF
FFFF
FFFF
FFFF
ENDCHAR
STARTCHAR emdash
ENCODING 8212
SWIDTH 341 0
DWIDTH 26 0
BBX 22 5 2 22
BITMAP
FFFFFC
FFFFFC
FFFFFC
FFFFFC
FFFFFC
ENDCHAR
STARTCHAR quoteleft
ENCODING 8216
SWIDTH 146 0
DWIDTH 11 0
BBX 7 9 2 45
BITMAP
F8
FC
7C
7C
7C
3E
3E
1E
1E
ENDCHAR
STARTCHAR quoteright
ENCODING 8217
SWIDTH 146 0
DWIDTH 11 0
BBX 7 9 2 45
BITMAP
3E
3E
7E
7C
7C
7C
F8
F8
F0
ENDCHAR
STARTCHAR quotesinglbase
ENCODING 8218
SWIDTH 146 0
DWIDTH 11 0
BBX 8 9 2 -3
BITMAP
3F
3E
3E
7C
7C
7C
78
F8
F8
ENDCHAR
STARTCHAR quotedblleft
ENCODING 8220
SWIDTH 249 0
DWIDTH 19 0
BBX 15 9 2 45
BITMAP
F8F8
FCF8
7CFC
7C7C
7C7C
3E3C
3E3E
1E3E
1E1E
ENDCHAR
STARTCHAR quotedblright
ENCODING 8221
SWIDTH 249 0
DWIDTH 19 0
BBX 15 9 2 45
BITMAP
3E3E
3E7E
7E7C
7C7C
7C7C
7CF8
F8F8
F8F0
F0F0
ENDCHAR
STARTCHAR quotedblbase
ENCODING 8222
SWIDTH 244 0
DWIDTH 18 0
BBX 15 9 2 -4
BITMAP
3E3E
3E7E
3E7C
7C7C
7C7C
7CF8
78F8
F8F8
F8F0
ENDCHAR
STARTCHAR dagger
ENCODING 8224
SWIDTH 495 0
DWIDTH 37 0
BBX 32 63 4 -10
BITMAP
00018000
0007F000
000FF800
000FF800
000FF800
000FF800
000FF000
0007F000
0007F000
0003E000
0003E000
0001C000
3E01C03E
7F81C0FF
7FE183FF
FFFEBFFF
FFFFFFFF
7FF89FFF
7FC183FF
7F0180FF
3C01C03E
0001C000
0001C000
0003E000
0003E000
0007F000
000FF800
000FF800
000FF800
000FF800
000FF800
000FF000
0007F000
0007F000
0007F000
0007F000
0007E000
0003E000
0003E000
0003E000
0003E000
0003E000
0003E000
0003C000
0001C000
0001C000
0001C000
0001C000
0001C000
0001C000
0001C000
0001C000
0001C000
00018000
00018000
00018000
00008000
00008000
00008000
00008000
00008000
00008000
00008000
ENDCHAR
STARTCHAR daggerdbl
ENCODING 8225
SWIDTH 495 0
DWIDTH 37 0
BBX 32 63 4 -10
BITMAP
00018000
0007F000
000FF800
000FF800
000FF800
000FF800
000FF000
0007F000
0007E000
0003E000
0003C000
0001C000
3E01C03E
7F8180FF
7FE183FF
FFFEBFFF
FFFFFFFF
FFF89FFF
7FC183FF
7F0180FF
3C01803E
0001C000
0001C000
0001C000
0003C000
0003C000
0003E000
0007E000
0007F000
0007F000
000FF800
000FF800
000FF800
0007F000
0007F000
0007E000
0003E000
0003E000
0003C000
0001C000
0001C000
0001C000
1C01801C
7F01807E
7FC181FF
7FF08FFF
FFFFFFFF
FFFFFFFF
7FF187FF
7F8181FF
7F01C07E
1801C01C
0003C000
0003E000
0007E000
0007F000
000FF000
000FF800
000FF800
000FF800
000FF800
000FF000
0003E000
ENDCHAR
STARTCHAR bullet
ENCODING 8226
SWIDTH 500 0
DWIDTH 38 0
BBX 21 22 10 15
BITMAP
01FC00
07FF00
0FFFC0
3FFFE0
3FFFE0
7FFFF0
7FFFF8
FFFFF8
FFFFF8
FFFFF8
FFFFF8
FFFFF8
FFFFF8
FFFFF8
FFFFF8
7FFFF0
7FFFF0
3FFFE0
1FFFC0
0FFF80
03FE00
002000
ENDCHAR
STARTCHAR ellipsis
ENCODING 8230
SWIDTH 366 0
DWIDTH 27 0
BBX 24 6 2 0
BITMAP
F87C3F
F87C3F
F87C3F
F87C3F
F87C3F
F87C3F
ENDCHAR
STARTCHAR perthousand
ENCODING 8240
SWIDTH 561 0
DWIDTH 42 0
BBX 40 51 2 -1
BITMAP
0FF8000000
3FFC03F800
7FFE03F000
7FFE07F000
FFFF07E000
FC3F0FE000
FC1F0FC000
F81F1FC000
F81F1F8000
F81F1F8000
F81F3F8000
F81F3F0000
F81F7F0000
F81F7E0000
F81FFE0000
F81FFC0000
F81FFC0000
FC1FF80000
FC3FF80000
FFFFF00000
7FFFF00000
7FFFE00000
3FFFE00000
1FFFC00000
000FC00000
001FC00000
001FBF07E0
003FFFDFF8
003FFFFFFC
007FFFFFFE
007FFFFFFE
00FFFFFFFF
00FFE1FC3F
01FFC0F81F
01FFC0F81F
01FFC0F81F
03FFC0F81F
03F7C0F81F
07F7C0F81F
07E7C0F81F
0FE7C0F81F
0FC7C0F81F
1FC7C0F81F
1F87C0F81F
3F87E1FC3F
3F07FFFFFF
7F07FFFFFE
7E03FFFFFE
7E01FFFFFC
FC01FFFFF8
00007F0FE0
ENDCHAR
STARTCHAR guilsinglleft
ENCODING 8249
SWIDTH 292 0
DWIDTH 22 0
BBX 18 37 2 6
BITMAP
001FC0
001F80
003F80
007F00
007E00
00FE00
01FC00
01F800
03F800
03F000
07E000
0FE000
0FC000
1F8000
3F8000
3F0000
7E0000
FE0000
FC0000
7E0000
7F0000
3F0000
1F8000
1FC000
0FC000
07E000
07F000
03F000
03F800
01FC00
00FC00
00FE00
007E00
003F00
003F80
001F80
000FC0
ENDCHAR
STARTCHAR guilsinglright
ENCODING 8250
SWIDTH 292 0
DWIDTH 22 0
BBX 18 37 2 6
BITMAP
FE0000
7E0000
7F0000
3F8000
1F8000
1FC000
0FC000
07E000
07F000
03F000
01F800
01FC00
00FC00
007E00
007F00
003F00
001F80
001FC0
000FC0
001F80
003F80
003F00
007E00
00FE00
00FC00
01F800
03F800
03F000
07F000
0FE000
0FC000
1FC000
3F8000
3F0000
7F0000
7E0000
FC0000
ENDCHAR
STARTCHAR fraction
ENCODING 8260
SWIDTH 268 0
DWIDTH 20 0
BBX 16 49 2 0
BITMAP
001F
003F
003F
003E
003E
007E
007E
007E
007C
007C
00FC
00FC
00F8
00F8
01F8
01F8
01F8
01F0
01F0
03F0
03F0
03E0
03E0
07E0
07E0
07E0
07C0
07C0
0FC0
0FC0
0F80
0F80
1F80
1F80
1F80
1F00
1F00
3F00
3F00
3E00
3E00
7E00
7E00
7E00
7C00
7C00
FC00
FC00
F800
ENDCHAR
STARTCHAR franc
ENCODING 8355
SWIDTH 341 0
DWIDTH 26 0
BBX 22 49 2 0
BITMAP
1FFFFC
1FFFFC
1FFFFC
1FFFFC
1FFFFC
1F8000
1F8000
1F8000
1F8000
1F8000
1F8000
1F8000
1F8000
1F8000
1F8000
1F8000
1F8000
1F8000
1F8000
1F8000
1F8000
1F8000
1FFFC0
1FFFC0
1FFFC0
1FFFC0
1FFFC0
1F8000
1F8000
1F8000
1F8000
1F8000
1F8000
1F8000
1F8000
1F8000
1F8000
1F8000
FFF800
FFF800
FFF800
FFF800
FFF800
FF8000
1F8000
1F8000
1F8000
1F8000
1F8000
ENDCHAR
STARTCHAR lira
ENCODING 8356
SWIDTH 292 0
DWIDTH 22 0
BBX 18 50 2 0
BITMAP
01FFC0
03FFC0
07FFC0
07FFC0
0FFFC0
0FC000
0F8000
0F8000
0F8000
1F8000
1F8000
1F8000
1F8000
1F8000
1F8000
1F8000
1F8000
1F8000
1F8000
1F8000
1F8000
1F8000
1F8000
FFF800
FFF800
FFF800
FFF800
FFF800
1F8000
1F8000
1F8000
1F8000
1F8000
1F8000
1F8000
1F8000
1F8000
1F8000
1F8000
1F8000
1F8000
1F8000
1F8000
1F0000
3FFFC0
FFFFC0
FFFFC0
FFFFC0
FFFFC0
FFFFC0
ENDCHAR
STARTCHAR peseta
ENCODING 8359
SWIDTH 341 0
DWIDTH 26 0
BBX 22 49 2 0
BITMAP
1FFFC0
1FFFE0
1FFFF0
1FFFF8
1FFFF8
1F81F8
1F80FC
1F80FC
1F80FC
1F80FC
1F80FC
1F80FC
1F80FC
1F80FC
1F80FC
1F80FC
1F80FC
1F80FC
1F80FC
1F80FC
1F80FC
1F80FC
1F80F8
1FFFF8
1FFFF8
1FFFF0
1FFFF0
1FFFE0
1FFF80
1F8000
1F8000
1F8000
1F8000
1F8000
1F8000
1F8000
1F8000
1F8000
FFF800
FFF800
FFF800
FFF800
FFF800
FF8000
1F8000
1F8000
1F8000
1F8000
1F8000
ENDCHAR
STARTCHAR Euro
ENCODING 8364
SWIDTH 341 0
DWIDTH 26 0
BBX 22 51 2 -1
BITMAP
01FFC0
03FFE0
07FFF0
07FFF8
0FFFF8
0FC1F8
0F80FC
0F80FC
0F80FC
1F80FC
1F80FC
1F80FC
1F80FC
1F8000
1F8000
1F8000
1F8000
FFFF00
FFFF00
FFFF00
FFFF00
FFFF00
FFFF00
1F8000
1F8000
1F8000
1F8000
1F8000
FFFF00
FFFF00
FFFF00
FFFF00
FFFF00
FFFF00
1F8000
1F8000
1F8000
1F80FC
1F80FC
1F80FC
1F80FC
1F80FC
0F80FC
0F80FC
0F80F8
0FFFF8
0FFFF8
07FFF8
07FFF0
03FFE0
00FF80
ENDCHAR
STARTCHAR uni2116
ENCODING 8470
SWIDTH 329 0
DWIDTH 25 0
BBX 21 24 2 25
BITMAP
E1C7F0
F1CFF0
F1CE38
F1CC38
F1CC38
F9CC38
F9CC38
F9CC38
F9CC38
F9CC38
FDCC38
FDCC38
EDCC38
EDCC38
EFCC38
EFCC38
E7CC38
E7CC38
E7CC38
E7CC38
E3CC38
E3CE78
E3CFF0
E3C7E0
ENDCHAR
STARTCHAR trademark
ENCODING 8482
SWIDTH 378 0
DWIDTH 28 0
BBX 25 24 2 25
BITMAP
FF9C0780
FF9E0780
1C1E0780
1C1E0F80
1C1E0F80
1C1E0F80
1C1F0F80
1C1F0F80
1C1F1F80
1C1F1F80
1C1F9B80
1C1F9B80
1C1FBB80
1C1FBB80
1C1DFB80
1C1DFB80
1C1DF380
1C1DF380
1C1DF380
1C1DF380
1C1CF380
1C1CF380
1C1CE380
1C1CE380
ENDCHAR
STARTCHAR partialdiff
ENCODING 8706
SWIDTH 805 0
DWIDTH 60 0
BBX 55 55 0 0
BITMAP
0FFFFFFFFFFFE0
30000000000018
6000000000000C
40000000000004
80000000000002
80000000000002
80000000000002
80000000000002
80000000000002
80000000000002
80000000000002
80000000000002
80000000000002
80000000000002
80000000000002
80000000000002
80000000000002
80000000000002
80000000000002
80000000000002
80000000000002
80000000000002
80000000000002
80000000000002
80000000000002
80000000000002
80000000000002
80000000000002
80000000000002
80000000000002
80000000000002
80000000000002
80000000000002
80000000000002
80000000000002
80000000000002
80000000000002
80000000000002
80000000000002
80000000000002
80000000000002
80000000000002
80000000000002
80000000000002
80000000000002
80000000000002
80000000000002
80000000000002
80000000000002
80000000000002
80000000000002
40000000000004
6000000000000C
30000000000018
0FFFFFFFFFFFE0
ENDCHAR
STARTCHAR Delta
ENCODING 8710
SWIDTH 805 0
DWIDTH 60 0
BBX 55 55 0 0
BITMAP
0FFFFFFFFFFFE0
30000000000018
6000000000000C
40000000000004
80000000000002
80000000000002
80000000000002
80000000000002
80000000000002
80000000000002
80000000000002
80000000000002
80000000000002
80000000000002
80000000000002
80000000000002
80000000000002
80000000000002
80000000000002
80000000000002
80000000000002
80000000000002
80000000000002
80000000000002
80000000000002
80000000000002
80000000000002
80000000000002
80000000000002
80000000000002
80000000000002
80000000000002
80000000000002
80000000000002
80000000000002
80000000000002
80000000000002
80000000000002
80000000000002
80000000000002
80000000000002
80000000000002
80000000000002
80000000000002
80000000000002
80000000000002
80000000000002
80000000000002
80000000000002
80000000000002
80000000000002
40000000000004
6000000000000C
30000000000018
0FFFFFFFFFFFE0
ENDCHAR
STARTCHAR product
ENCODING 8719
SWIDTH 805 0
DWIDTH 60 0
BBX 55 55 0 0
BITMAP
0FFFFFFFFFFFE0
30000000000018
6000000000000C
40000000000004
80000000000002
80000000000002
80000000000002
80000000000002
80000000000002
80000000000002
80000000000002
80000000000002
80000000000002
80000000000002
80000000000002
80000000000002
80000000000002
80000000000002
80000000000002
80000000000002
80000000000002
80000000000002
80000000000002
80000000000002
80000000000002
80000000000002
80000000000002
80000000000002
80000000000002
80000000000002
80000000000002
80000000000002
80000000000002
80000000000002
80000000000002
80000000000002
80000000000002
80000000000002
80000000000002
80000000000002
80000000000002
80000000000002
80000000000002
80000000000002
80000000000002
80000000000002
80000000000002
80000000000002
80000000000002
80000000000002
80000000000002
40000000000004
6000000000000C
30000000000018
0FFFFFFFFFFFE0
ENDCHAR
STARTCHAR summation
ENCODING 8721
SWIDTH 805 0
DWIDTH 60 0
BBX 55 55 0 0
BITMAP
0FFFFFFFFFFFE0
30000000000018
6000000000000C
40000000000004
80000000000002
80000000000002
80000000000002
80000000000002
80000000000002
80000000000002
80000000000002
80000000000002
80000000000002
80000000000002
80000000000002
80000000000002
80000000000002
80000000000002
80000000000002
80000000000002
80000000000002
80000000000002
80000000000002
80000000000002
80000000000002
80000000000002
80000000000002
80000000000002
80000000000002
80000000000002
80000000000002
80000000000002
80000000000002
80000000000002
80000000000002
80000000000002
80000000000002
80000000000002
80000000000002
80000000000002
80000000000002
80000000000002
80000000000002
80000000000002
80000000000002
80000000000002
80000000000002
80000000000002
80000000000002
80000000000002
80000000000002
40000000000004
6000000000000C
30000000000018
0FFFFFFFFFFFE0
ENDCHAR
STARTCHAR minus
ENCODING 8722
SWIDTH 268 0
DWIDTH 20 0
BBX 16 5 2 22
BITMAP
FFFF
FFFF
FFFF
FFFF
FFFF
ENDCHAR
STARTCHAR fraction.dup5
ENCODING 8725
SWIDTH 268 0
DWIDTH 20 0
BBX 16 49 2 0
BITMAP
001F
003F
003F
003E
003E
007E
007E
007E
007C
007C
00FC
00FC
00F8
00F8
01F8
01F8
01F8
01F0
01F0
03F0
03F0
03E0
03E0
07E0
07E0
07E0
07C0
07C0
0FC0
0FC0
0F80
0F80
1F80
1F80
1F80
1F00
1F00
3F00
3F00
3E00
3E00
7E00
7E00
7E00
7C00
7C00
FC00
FC00
F800
ENDCHAR
STARTCHAR periodcentered.dup6
ENCODING 8729
SWIDTH 122 0
DWIDTH 9 0
BBX 5 6 2 23
BITMAP
F8
F8
F8
F8
F8
F8
ENDCHAR
STARTCHAR approxequal
ENCODING 8776
SWIDTH 805 0
DWIDTH 60 0
BBX 55 55 0 0
BITMAP
0FFFFFFFFFFFE0
30000000000018
6000000000000C
40000000000004
80000000000002
80000000000002
80000000000002
80000000000002
80000000000002
80000000000002
80000000000002
80000000000002
80000000000002
80000000000002
80000000000002
80000000000002
80000000000002
80000000000002
80000000000002
80000000000002
80000000000002
80000000000002
80000000000002
80000000000002
80000000000002
80000000000002
80000000000002
80000000000002
80000000000002
80000000000002
80000000000002
80000000000002
80000000000002
80000000000002
80000000000002
80000000000002
80000000000002
80000000000002
80000000000002
80000000000002
80000000000002
80000000000002
80000000000002
80000000000002
80000000000002
80000000000002
80000000000002
80000000000002
80000000000002
80000000000002
80000000000002
40000000000004
6000000000000C
30000000000018
0FFFFFFFFFFFE0
ENDCHAR
STARTCHAR lessequal
ENCODING 8804
SWIDTH 805 0
DWIDTH 60 0
BBX 55 55 0 0
BITMAP
0FFFFFFFFFFFE0
30000000000018
6000000000000C
40000000000004
80000000000002
80000000000002
80000000000002
80000000000002
80000000000002
80000000000002
80000000000002
80000000000002
80000000000002
80000000000002
80000000000002
80000000000002
80000000000002
80000000000002
80000000000002
80000000000002
80000000000002
80000000000002
80000000000002
80000000000002
80000000000002
80000000000002
80000000000002
80000000000002
80000000000002
80000000000002
80000000000002
80000000000002
80000000000002
80000000000002
80000000000002
80000000000002
80000000000002
80000000000002
80000000000002
80000000000002
80000000000002
80000000000002
80000000000002
80000000000002
80000000000002
80000000000002
80000000000002
80000000000002
80000000000002
80000000000002
80000000000002
40000000000004
6000000000000C
30000000000018
0FFFFFFFFFFFE0
ENDCHAR
STARTCHAR greaterequal
ENCODING 8805
SWIDTH 805 0
DWIDTH 60 0
BBX 55 55 0 0
BITMAP
0FFFFFFFFFFFE0
30000000000018
6000000000000C
40000000000004
80000000000002
80000000000002
80000000000002
80000000000002
80000000000002
80000000000002
80000000000002
80000000000002
80000000000002
80000000000002
80000000000002
80000000000002
80000000000002
80000000000002
80000000000002
80000000000002
80000000000002
80000000000002
80000000000002
80000000000002
80000000000002
80000000000002
80000000000002
80000000000002
80000000000002
80000000000002
80000000000002
80000000000002
80000000000002
80000000000002
80000000000002
80000000000002
80000000000002
80000000000002
80000000000002
80000000000002
80000000000002
80000000000002
80000000000002
80000000000002
80000000000002
80000000000002
80000000000002
80000000000002
80000000000002
80000000000002
80000000000002
40000000000004
6000000000000C
30000000000018
0FFFFFFFFFFFE0
ENDCHAR
STARTCHAR uniF001
ENCODING 61441
SWIDTH 523 0
DWIDTH 39 0
BBX 1 1 0 0
BITMAP
00
ENDCHAR
STARTCHAR uniF002
ENCODING 61442
SWIDTH 527 0
DWIDTH 40 0
BBX 1 1 0 0
BITMAP
00
ENDCHAR
STARTCHAR uniF001.dup7
ENCODING 64257
SWIDTH 523 0
DWIDTH 39 0
BBX 1 1 0 0
BITMAP
00
ENDCHAR
STARTCHAR uniF002.dup8
ENCODING 64258
SWIDTH 527 0
DWIDTH 40 0
BBX 1 1 0 0
BITMAP
00
ENDCHAR
STARTCHAR .notdef
ENCODING -1
SWIDTH 805 0
DWIDTH 60 0
BBX 55 55 0 0
BITMAP
0FFFFFFFFFFFE0
30000000000018
6000000000000C
40000000000004
80000000000002
80000000000002
80000000000002
80000000000002
80000000000002
80000000000002
80000000000002
80000000000002
80000000000002
80000000000002
80000000000002
80000000000002
80000000000002
80000000000002
80000000000002
80000000000002
80000000000002
80000000000002
80000000000002
80000000000002
80000000000002
80000000000002
80000000000002
80000000000002
80000000000002
80000000000002
80000000000002
80000000000002
80000000000002
80000000000002
80000000000002
80000000000002
80000000000002
80000000000002
80000000000002
80000000000002
80000000000002
80000000000002
80000000000002
80000000000002
80000000000002
80000000000002
80000000000002
80000000000002
80000000000002
80000000000002
80000000000002
40000000000004
6000000000000C
30000000000018
0FFFFFFFFFFFE0
ENDCHAR
STARTCHAR nonmarkingreturn
ENCODING -1
SWIDTH 248 0
DWIDTH 19 0
BBX 1 1 0 0
BITMAP
00
ENDCHAR
ENDFONT
